<svg width="102" height="35" viewBox="0 0 102 35" fill="none" xmlns="http://www.w3.org/2000/svg">
<g clip-path="url(#clip0_32_3632)" filter="url(#filter0_d_32_3632)">
<rect width="102" height="35" fill="url(#paint0_radial_32_3632)"/>
<g opacity="0.06">
<path d="M39.0837 9.25256C39.0837 8.52298 39.493 7.85283 40.1413 7.51819C40.7892 7.18427 41.5685 7.23984 42.1628 7.66174L44.8318 9.55725L44.8347 9.56018C44.915 9.61717 44.9845 9.64193 45.0368 9.651C45.0882 9.65973 45.1428 9.65719 45.2009 9.63928C45.2609 9.62067 45.3417 9.57836 45.4294 9.49866C45.5176 9.41826 45.6102 9.30082 45.6872 9.14124L45.863 8.84534C45.9295 8.7533 46.0039 8.66689 46.0857 8.58752L51.195 3.63049C51.2646 3.38235 51.2844 3.10216 51.2361 2.82483C51.1697 2.44514 50.9997 2.17512 50.8347 2.02795L42.8952 -5.04431C40.8822 -6.83678 38.4859 -7.76306 36.072 -7.76306H18.9275C16.5135 -7.76284 14.1172 -6.83712 12.1042 -5.04431L4.16477 2.02795C3.9995 2.17531 3.82962 2.44721 3.7634 2.82776C3.7152 3.1052 3.73179 3.38532 3.80149 3.63342L8.91379 8.59045C9.07814 8.74984 9.21277 8.93796 9.31223 9.14417C9.38958 9.30446 9.48448 9.42117 9.57297 9.50159C9.65993 9.58051 9.73875 9.62053 9.79856 9.63928C9.85682 9.65729 9.91109 9.65978 9.96262 9.651C10.0154 9.64196 10.0862 9.61836 10.1677 9.56018L12.8366 7.65881C13.431 7.23608 14.2126 7.18108 14.8611 7.51526C15.509 7.84968 15.9153 8.51752 15.9157 9.2467V32.4996C15.9157 32.9322 16.0636 33.2947 16.2497 33.5162C16.4278 33.7277 16.5926 33.7653 16.6745 33.7653H38.3279C38.4099 33.7652 38.5717 33.7276 38.7497 33.5162C38.9362 33.2948 39.0837 32.9328 39.0837 32.4996V9.25256ZM42.9831 32.4996C42.9831 33.7713 42.5609 35.0458 41.7322 36.0299C40.895 37.0234 39.6811 37.6646 38.3279 37.6647H16.6745C15.3208 37.6647 14.1045 37.0239 13.2673 36.0299C12.4386 35.0458 12.0163 33.7713 12.0163 32.4996V12.9996C11.5865 13.2408 11.1167 13.4099 10.6218 13.4948C9.96029 13.6081 9.28611 13.5633 8.64719 13.3658C8.01031 13.1688 7.43536 12.83 6.9509 12.3903C6.56495 12.0398 6.24177 11.6299 5.9841 11.1832L0.786839 6.14124C0.622594 5.98195 0.487845 5.79357 0.388401 5.58752C-0.122244 4.52841 -0.281052 3.31484 -0.0803489 2.15979C0.120521 1.0054 0.681272 -0.0909128 1.57199 -0.884155L9.51145 -7.95642C12.1833 -10.3359 15.4855 -11.6652 18.9275 -11.6654H36.072C39.5144 -11.6654 42.8188 -10.3363 45.4909 -7.95642L53.4304 -0.884155C54.32 -0.0911865 54.8789 1.00345 55.0798 2.15686C55.2808 3.31102 55.1234 4.52289 54.614 5.58167C54.5145 5.78849 54.3803 5.97852 54.2155 6.13831L49.0095 11.1832C48.7527 11.6274 48.4353 12.0385 48.0515 12.3873C47.5678 12.8268 46.9941 13.1654 46.3581 13.3629C45.7198 13.5609 45.0448 13.6072 44.3835 13.4948C43.8859 13.41 43.4151 13.2365 42.9831 12.9938V32.4996Z" fill="#5146C1"/>
</g>
</g>
<defs>
<filter id="filter0_d_32_3632" x="-2" y="-1" width="106" height="39" filterUnits="userSpaceOnUse" color-interpolation-filters="sRGB">
<feFlood flood-opacity="0" result="BackgroundImageFix"/>
<feColorMatrix in="SourceAlpha" type="matrix" values="0 0 0 0 0 0 0 0 0 0 0 0 0 0 0 0 0 0 127 0" result="hardAlpha"/>
<feOffset dy="1"/>
<feGaussianBlur stdDeviation="1"/>
<feComposite in2="hardAlpha" operator="out"/>
<feColorMatrix type="matrix" values="0 0 0 0 0 0 0 0 0 0.0298853 0 0 0 0 0.089656 0 0 0 0.25 0"/>
<feBlend mode="normal" in2="BackgroundImageFix" result="effect1_dropShadow_32_3632"/>
<feBlend mode="normal" in="SourceGraphic" in2="effect1_dropShadow_32_3632" result="shape"/>
</filter>
<radialGradient id="paint0_radial_32_3632" cx="0" cy="0" r="1" gradientUnits="userSpaceOnUse" gradientTransform="translate(53.1683 35) rotate(-90) scale(39.0088 116.148)">
<stop offset="0.0813115" stop-color="white"/>
<stop offset="0.895247" stop-color="#E6E6F1"/>
</radialGradient>
<clipPath id="clip0_32_3632">
<rect width="102" height="35" fill="white"/>
</clipPath>
</defs>
</svg>
