<svg width="102" height="35" viewBox="0 0 102 35" fill="none" xmlns="http://www.w3.org/2000/svg">
<g clip-path="url(#clip0_32_3616)" filter="url(#filter0_d_32_3616)">
<rect width="102" height="35" fill="url(#paint0_radial_32_3616)"/>
<g opacity="0.06">
<path d="M7.85655 -10.5393C6.30059 -10.5315 4.81102 -9.90796 3.71354 -8.80497C2.61607 -7.70197 1.99998 -6.20929 2 -4.65331C2.00312 -3.28607 2.48212 -1.96256 3.35476 -0.910016C4.05048 -0.0708714 4.9618 0.554313 5.98328 0.903251C6.43749 1.05841 6.78224 1.46202 6.78224 1.94199V24.0516C6.78224 24.5316 6.43749 24.9352 5.98328 25.0903C4.96 25.4399 4.0473 26.0666 3.35116 26.908C2.47829 27.9628 2.00049 29.289 2 30.6582C2.0012 32.2185 2.62186 33.7145 3.72557 34.8173C4.82928 35.9202 6.32573 36.5397 7.88601 36.5397C9.44551 36.5385 10.9408 35.9185 12.0435 34.8157C13.1462 33.713 13.7663 32.2177 13.7675 30.6582C13.7672 29.2898 13.2902 27.9643 12.4185 26.9095C11.7232 26.0682 10.8114 25.4411 9.78888 25.0908C9.33516 24.9354 8.99091 24.532 8.99091 24.0524V15.1017C8.99091 14.5494 9.43863 14.1017 9.99091 14.1017H25.3917C25.944 14.1017 26.3917 14.5494 26.3917 15.1017V24.0516C26.3917 24.5316 26.0469 24.9352 25.5927 25.0903C24.5695 25.4399 23.6568 26.0666 22.9606 26.908C22.0878 27.9628 21.6099 29.289 21.6095 30.6582C21.6101 31.4314 21.763 32.1968 22.0595 32.9109C22.3559 33.6249 22.7902 34.2736 23.3374 34.8197C23.8847 35.3659 24.5341 35.7989 25.2487 36.094C25.9634 36.3891 26.7291 36.5406 27.5023 36.5397C29.0618 36.5385 30.557 35.9185 31.6598 34.8157C32.7625 33.713 33.3825 32.2177 33.3837 30.6582C33.3833 29.289 32.9054 27.9628 32.0326 26.908C31.3364 26.0666 30.4237 25.4399 29.4005 25.0903C28.9463 24.9352 28.6015 24.5316 28.6015 24.0516V15.1017C28.6015 14.5494 29.0492 14.1017 29.6015 14.1017H47.2178C47.77 14.1017 48.2178 13.654 48.2178 13.1017V1.94199C48.2178 1.46202 48.5625 1.05841 49.0167 0.903251C50.0382 0.554313 50.9495 -0.0708714 51.6452 -0.910016C52.5179 -1.96256 52.9969 -3.28607 53 -4.65331C53 -6.21359 52.3805 -7.71004 51.2776 -8.81375C50.1748 -9.91746 48.6788 -10.5381 47.1185 -10.5393H47.0959C45.5395 -10.5321 44.0494 -9.90883 42.9514 -8.80576C41.8534 -7.7027 41.237 -6.20968 41.237 -4.65331C41.2402 -3.28607 41.7192 -1.96256 42.5918 -0.910016C43.2875 -0.0708723 44.1988 0.554313 45.2203 0.903251C45.6745 1.05841 46.0193 1.46202 46.0193 1.94199V10.8919C46.0193 11.4442 45.5716 11.8919 45.0193 11.8919H29.6015C29.0492 11.8919 28.6015 11.4442 28.6015 10.8919V1.94199C28.6015 1.46202 28.9463 1.05841 29.4005 0.903251C30.4219 0.554313 31.3333 -0.0708723 32.029 -0.910016C32.9016 -1.96256 33.3806 -3.28607 33.3837 -4.65331C33.3837 -6.21359 32.7642 -7.71004 31.6614 -8.81375C30.5585 -9.91746 29.0625 -10.5381 27.5023 -10.5393H27.4796C25.9213 -10.5351 24.4282 -9.91314 23.3278 -8.80975C22.2274 -7.70636 21.6094 -6.21163 21.6095 -4.65331C21.6126 -3.28607 22.0916 -1.96256 22.9642 -0.910016C23.6599 -0.0708714 24.5713 0.554313 25.5927 0.903251C26.0469 1.05841 26.3917 1.46202 26.3917 1.94199V10.8919C26.3917 11.4442 25.944 11.8919 25.3917 11.8919H9.99091C9.43863 11.8919 8.99091 11.4442 8.99091 10.8919V1.94117C8.99091 1.46156 9.33516 1.05815 9.78888 0.902735C10.8096 0.553102 11.72 -0.0724268 12.4149 -0.911571C13.2864 -1.96401 13.7646 -3.28687 13.7675 -4.65331C13.7675 -6.21359 13.148 -7.71004 12.0451 -8.81375C10.9423 -9.91746 9.44629 -10.5381 7.88601 -10.5393H7.85655Z" fill="#675DD6"/>
</g>
</g>
<defs>
<filter id="filter0_d_32_3616" x="-2" y="-1" width="106" height="39" filterUnits="userSpaceOnUse" color-interpolation-filters="sRGB">
<feFlood flood-opacity="0" result="BackgroundImageFix"/>
<feColorMatrix in="SourceAlpha" type="matrix" values="0 0 0 0 0 0 0 0 0 0 0 0 0 0 0 0 0 0 127 0" result="hardAlpha"/>
<feOffset dy="1"/>
<feGaussianBlur stdDeviation="1"/>
<feComposite in2="hardAlpha" operator="out"/>
<feColorMatrix type="matrix" values="0 0 0 0 0 0 0 0 0 0 0 0 0 0 0 0 0 0 0.2 0"/>
<feBlend mode="normal" in2="BackgroundImageFix" result="effect1_dropShadow_32_3616"/>
<feBlend mode="normal" in="SourceGraphic" in2="effect1_dropShadow_32_3616" result="shape"/>
</filter>
<radialGradient id="paint0_radial_32_3616" cx="0" cy="0" r="1" gradientUnits="userSpaceOnUse" gradientTransform="translate(53.1683 35) rotate(-90) scale(39.0088 116.148)">
<stop offset="0.0813115" stop-color="white"/>
<stop offset="0.895247" stop-color="#E6E6F1"/>
</radialGradient>
<clipPath id="clip0_32_3616">
<rect width="102" height="35" fill="white"/>
</clipPath>
</defs>
</svg>
