<svg width="102" height="35" viewBox="0 0 102 35" fill="none" xmlns="http://www.w3.org/2000/svg">
<g clip-path="url(#clip0_32_3577)" filter="url(#filter0_d_32_3577)">
<rect width="102" height="35" fill="url(#paint0_radial_32_3577)"/>
<path d="M16.4004 0.445312L16.373 0.472656C11.9721 4.76364 8.79526 8.91132 6.51172 13.5225H6.51074C4.38265 17.7624 2.89815 22.4258 1.69043 28.7744L1.67188 28.8721H-4.08594L-4.06738 28.7744C-1.80458 16.8795 2.6784 7.97324 10.3174 0.461914H-1.30273L-2.31641 5.78906H-7.26172L-5.2334 -4.87402H17.4121L16.4004 0.445312ZM42.8809 0.445312L42.8535 0.472656C38.4525 4.76364 35.2757 8.91132 32.9922 13.5225H32.9912C30.8631 17.7624 29.3786 22.4258 28.1709 28.7744L28.1523 28.8721H22.3945L22.4131 28.7744C24.6759 16.8795 29.1589 7.97324 36.7979 0.461914H25.1777L24.1641 5.78906H19.2188L21.2471 -4.87402H43.8926L42.8809 0.445312ZM69.248 0.445312L69.2207 0.472656C64.8197 4.76364 61.6429 8.91132 59.3594 13.5225H59.3584C57.2303 17.7624 55.7458 22.4258 54.5381 28.7744L54.5195 28.8721H48.7617L48.7803 28.7744C51.0431 16.8795 55.5261 7.97324 63.165 0.461914H51.5449L50.5312 5.78906H45.5859L47.6143 -4.87402H70.2598L69.248 0.445312ZM-3.96777 28.7744H1.58984V28.7734H-3.9668L-3.96777 28.7744ZM22.5127 28.7744H28.0703V28.7734H22.5137L22.5127 28.7744ZM48.8799 28.7744H54.4375V28.7734H48.8809L48.8799 28.7744ZM-3.37012 25.9316C-3.32707 25.7446 -3.28257 25.5585 -3.23828 25.373C-3.28255 25.5586 -3.32709 25.7446 -3.37012 25.9316ZM-1.49414 19.3652C-1.56024 19.5552 -1.62308 19.7468 -1.6875 19.9385C-1.60024 19.6788 -1.51175 19.4207 -1.42188 19.1641L-1.49414 19.3652ZM24.9863 19.3652C24.9202 19.5552 24.8574 19.7468 24.793 19.9385C24.8802 19.6788 24.9687 19.4207 25.0586 19.1641L24.9863 19.3652ZM51.3535 19.3652C51.2874 19.5552 51.2246 19.7468 51.1602 19.9385C51.2474 19.6788 51.3359 19.4207 51.4258 19.1641L51.3535 19.3652ZM16.3066 0.410156C15.8217 0.883008 15.352 1.35465 14.8965 1.8252C15.3523 1.35461 15.8225 0.883169 16.3076 0.410156L17.2939 -4.77637L16.3066 0.410156ZM42.7871 0.410156C42.3021 0.883008 41.8325 1.35465 41.377 1.8252C41.8328 1.35461 42.3029 0.883169 42.7881 0.410156L43.7744 -4.77637L42.7871 0.410156ZM69.1543 0.410156C68.6693 0.883008 68.1997 1.35465 67.7441 1.8252C68.1999 1.35461 68.6701 0.883169 69.1553 0.410156L70.1416 -4.77637L69.1543 0.410156ZM-1.38379 0.364258H10.543L10.5439 0.363281H-1.38477L-1.38379 0.364258ZM25.0967 0.364258H37.0234L37.0244 0.363281H25.0957L25.0967 0.364258ZM51.4639 0.364258H63.3906L63.3916 0.363281H51.4629L51.4639 0.364258Z" fill="url(#paint1_linear_32_3577)" fill-opacity="0.25"/>
</g>
<defs>
<filter id="filter0_d_32_3577" x="-2" y="-1" width="106" height="39" filterUnits="userSpaceOnUse" color-interpolation-filters="sRGB">
<feFlood flood-opacity="0" result="BackgroundImageFix"/>
<feColorMatrix in="SourceAlpha" type="matrix" values="0 0 0 0 0 0 0 0 0 0 0 0 0 0 0 0 0 0 127 0" result="hardAlpha"/>
<feOffset dy="1"/>
<feGaussianBlur stdDeviation="1"/>
<feComposite in2="hardAlpha" operator="out"/>
<feColorMatrix type="matrix" values="0 0 0 0 0 0 0 0 0 0 0 0 0 0 0 0 0 0 0.2 0"/>
<feBlend mode="normal" in2="BackgroundImageFix" result="effect1_dropShadow_32_3577"/>
<feBlend mode="normal" in="SourceGraphic" in2="effect1_dropShadow_32_3577" result="shape"/>
</filter>
<radialGradient id="paint0_radial_32_3577" cx="0" cy="0" r="1" gradientUnits="userSpaceOnUse" gradientTransform="translate(53.1683 37.9303) rotate(-90) scale(37.9303 93.6138)">
<stop offset="0.0253304" stop-color="#C982FF"/>
<stop offset="1" stop-color="#5C56ED"/>
</radialGradient>
<linearGradient id="paint1_linear_32_3577" x1="31.499" y1="-4.87402" x2="31.499" y2="28.8721" gradientUnits="userSpaceOnUse">
<stop stop-color="white"/>
<stop offset="1" stop-color="white" stop-opacity="0"/>
</linearGradient>
<clipPath id="clip0_32_3577">
<rect width="102" height="35" fill="white"/>
</clipPath>
</defs>
</svg>
