<svg width="102" height="35" viewBox="0 0 102 35" fill="none" xmlns="http://www.w3.org/2000/svg">
<g clip-path="url(#clip0_32_3605)" filter="url(#filter0_d_32_3605)">
<rect width="102" height="35" fill="url(#paint0_radial_32_3605)"/>
<g opacity="0.06">
<path d="M24.2829 -13.0801C26.1808 -14.0942 28.4008 -14.1583 30.3386 -13.2706L30.7195 -13.0801L30.7283 -13.0743L47.0027 -4.29987C50.2679 -2.53804 50.2681 2.34672 47.0027 4.10833L30.7283 12.8827L30.7195 12.8857C28.6955 13.967 26.3068 13.9672 24.2829 12.8857L24.2771 12.8827L8.00267 4.10833H7.99974C4.73484 2.34672 4.73539 -2.53774 7.99974 -4.29987H8.00267L24.2771 -13.0743L24.2829 -13.0801ZM28.5486 -9.79303C27.7565 -10.1003 26.8861 -10.0502 26.1199 -9.64069L9.8513 -0.869207C9.62961 -0.749374 9.45286 -0.483837 9.45286 -0.0957699C9.45316 0.291524 9.62998 0.554905 9.8513 0.674738L26.1199 9.44622L26.4538 9.59857C27.2462 9.90629 28.1159 9.85595 28.8825 9.44622L45.1511 0.674738L45.3064 0.55755C45.4502 0.414965 45.5522 0.195047 45.5525 -0.0957699C45.5525 -0.387399 45.4506 -0.60929 45.3064 -0.75202L45.1511 -0.869207L28.8825 -9.64069L28.5486 -9.79303Z" fill="#5146C1"/>
<path d="M0.550293 25.0904V10.7906C0.550559 7.24783 4.26994 5.00686 7.3999 6.57184L22.5317 14.1509C25.0519 15.4278 26.6772 18.0195 26.6772 20.8658V35.1656C26.6772 38.7083 22.9605 40.9488 19.8306 39.3843L4.70459 31.8082L4.6958 31.8052C2.17555 30.5283 0.550293 27.9367 0.550293 25.0904ZM4.45264 25.0904C4.45264 26.4404 5.22371 27.697 6.44775 28.3218L21.5737 35.898L21.7876 35.9713C22.2911 36.0766 22.7778 35.6972 22.7778 35.1656V20.8658C22.7778 19.5126 22.0001 18.2546 20.771 17.6314L5.65381 10.0582C5.08402 9.77334 4.4529 10.1838 4.45264 10.7906V25.0904Z" fill="#5146C1"/>
<path d="M50.5537 25.0905V10.7907C50.5534 10.1839 49.9194 9.77634 49.3496 10.0612L34.2295 17.6286L34.2324 17.6316C33.0035 18.2548 32.2286 19.5128 32.2285 20.8659V35.1657C32.2285 35.7724 32.86 36.1822 33.4297 35.8982L48.5527 28.322C49.7783 27.6976 50.5537 26.4416 50.5537 25.0905ZM54.4531 25.0905C54.4531 27.9369 52.8279 30.5285 50.3076 31.8054L35.1758 39.3845C32.0457 40.9495 28.3262 38.7087 28.3262 35.1657V20.8659C28.3262 18.0197 29.9515 15.428 32.4717 14.1511L32.4805 14.1482L47.6035 6.57198C50.7333 5.00791 54.4529 7.24832 54.4531 10.7907V25.0905Z" fill="#5146C1"/>
</g>
</g>
<defs>
<filter id="filter0_d_32_3605" x="-2" y="-1" width="106" height="39" filterUnits="userSpaceOnUse" color-interpolation-filters="sRGB">
<feFlood flood-opacity="0" result="BackgroundImageFix"/>
<feColorMatrix in="SourceAlpha" type="matrix" values="0 0 0 0 0 0 0 0 0 0 0 0 0 0 0 0 0 0 127 0" result="hardAlpha"/>
<feOffset dy="1"/>
<feGaussianBlur stdDeviation="1"/>
<feComposite in2="hardAlpha" operator="out"/>
<feColorMatrix type="matrix" values="0 0 0 0 0 0 0 0 0 0 0 0 0 0 0 0 0 0 0.2 0"/>
<feBlend mode="normal" in2="BackgroundImageFix" result="effect1_dropShadow_32_3605"/>
<feBlend mode="normal" in="SourceGraphic" in2="effect1_dropShadow_32_3605" result="shape"/>
</filter>
<radialGradient id="paint0_radial_32_3605" cx="0" cy="0" r="1" gradientUnits="userSpaceOnUse" gradientTransform="translate(53.1683 35) rotate(-90) scale(39.0088 116.148)">
<stop offset="0.0813115" stop-color="white"/>
<stop offset="0.895247" stop-color="#E6E6F1"/>
</radialGradient>
<clipPath id="clip0_32_3605">
<rect width="102" height="35" fill="white"/>
</clipPath>
</defs>
</svg>
