<svg width="102" height="35" viewBox="0 0 102 35" fill="none" xmlns="http://www.w3.org/2000/svg">
<rect width="102" height="35" fill="#1E1E1E"/>
<path d="M-710 -4409.31C-710 -4410.24 -709.241 -4411 -708.306 -4411H12377.3C12378.2 -4411 12379 -4410.24 12379 -4409.31V4765.31C12379 4766.24 12378.2 4767 12377.3 4767H-708.305C-709.241 4767 -710 4766.24 -710 4765.31V-4409.31Z" fill="#444444"/>
<path d="M-708.306 -4411V-4410.15H12377.3V-4411V-4411.85H-708.306V-4411ZM12379 -4409.31H12378.2V4765.31H12379H12379.8V-4409.31H12379ZM12377.3 4767V4766.15H-708.305V4767V4767.85H12377.3V4767ZM-710 4765.31H-709.153V-4409.31H-710H-710.847V4765.31H-710ZM-708.305 4767V4766.15C-708.774 4766.15 -709.153 4765.77 -709.153 4765.31H-710H-710.847C-710.847 4766.71 -709.709 4767.85 -708.305 4767.85V4767ZM12379 4765.31H12378.2C12378.2 4765.77 12377.8 4766.15 12377.3 4766.15V4767V4767.85C12378.7 4767.85 12379.8 4766.71 12379.8 4765.31H12379ZM12377.3 -4411V-4410.15C12377.8 -4410.15 12378.2 -4409.77 12378.2 -4409.31H12379H12379.8C12379.8 -4410.71 12378.7 -4411.85 12377.3 -4411.85V-4411ZM-708.306 -4411V-4411.85C-709.709 -4411.85 -710.847 -4410.71 -710.847 -4409.31H-710H-709.153C-709.153 -4409.77 -708.774 -4410.15 -708.306 -4410.15V-4411Z" fill="white" fill-opacity="0.1"/>
<g clip-path="url(#clip0_0_1)">
<rect width="2615" height="2695.93" transform="translate(-206 -484)" fill="url(#paint0_linear_0_1)"/>
<path d="M-16 -2C-16 -9.73199 -9.73199 -16 -2 -16H1890C1897.73 -16 1904 -9.73199 1904 -2V37C1904 44.732 1897.73 51 1890 51H-1.99998C-9.73197 51 -16 44.732 -16 37V-2Z" fill="white"/>
<g clip-path="url(#clip1_0_1)" filter="url(#filter0_d_0_1)">
<rect width="102" height="35" fill="url(#paint1_radial_0_1)"/>
<path d="M37.6406 -25.8047C40.6278 -25.8044 43.1527 -23.6538 43.6445 -20.707L46.1016 -5.97264C47.7383 -6.8868 49.8254 -6.37759 50.8477 -4.77733L54.375 0.750015L54.5508 1.05861C54.9242 1.79296 55.0331 2.63167 54.8555 3.44533C54.6539 4.36676 54.1066 5.1644 53.3164 5.6797L53.3125 5.6758L52.9805 5.90627C53.5168 7.86919 53.8008 9.91368 53.8008 12C53.8008 18.1227 51.4184 23.888 47.1016 28.2188C46.8286 28.4925 46.5457 28.7538 46.2617 29.0117L43.6445 44.707C43.1527 47.6539 40.6278 49.8045 37.6406 49.8047H24.2188C21.2316 49.8044 18.7068 47.6538 18.2148 44.707L15.5938 29.0117C15.3105 28.7544 15.0301 28.4919 14.7578 28.2188C10.4407 23.888 8.05861 18.1227 8.05859 12C8.05861 5.87733 10.4408 0.112007 14.7578 -4.21873C15.0307 -4.49245 15.3098 -4.75771 15.5938 -5.01561L18.2148 -20.707C18.7067 -23.6538 21.2315 -25.8044 24.2188 -25.8047H37.6406ZM38.043 48.3457C37.9103 48.3571 37.7761 48.3633 37.6406 48.3633L37.8398 48.3594C37.9079 48.3565 37.9756 48.3515 38.043 48.3457ZM38.1689 48.332C38.1947 48.3291 38.2205 48.3266 38.2461 48.3233C38.2205 48.3266 38.1947 48.3291 38.1689 48.332ZM38.3252 48.3115C38.3743 48.3043 38.4231 48.2968 38.4717 48.2881C38.4231 48.2968 38.3743 48.3043 38.3252 48.3115ZM23.3926 48.2891C23.4192 48.2938 23.4459 48.2975 23.4727 48.3018C23.4459 48.2975 23.4192 48.2938 23.3926 48.2891ZM38.4922 48.2842C38.5442 48.2746 38.596 48.2643 38.6475 48.2529C38.596 48.2643 38.5442 48.2746 38.4922 48.2842ZM38.7412 48.2315C38.7726 48.2239 38.8038 48.2153 38.835 48.207C38.8038 48.2153 38.7726 48.2239 38.7412 48.2315ZM23.0244 48.208C23.0344 48.2107 23.0447 48.2123 23.0547 48.2149C23.0447 48.2123 23.0344 48.2107 23.0244 48.208ZM38.9482 48.1758C38.9714 48.169 38.9946 48.1624 39.0176 48.1553C38.9946 48.1624 38.9714 48.169 38.9482 48.1758ZM22.833 48.1524C22.8467 48.1566 22.8603 48.1609 22.874 48.1651C22.8603 48.1609 22.8467 48.1566 22.833 48.1524ZM39.1289 48.1192C39.1558 48.1101 39.1823 48.1004 39.209 48.0908C39.1823 48.1004 39.1558 48.1101 39.1289 48.1192ZM22.6514 48.0918C22.6656 48.0969 22.68 48.1015 22.6943 48.1065C22.68 48.1015 22.6656 48.0969 22.6514 48.0918ZM39.3154 48.0518C39.356 48.0361 39.3965 48.0206 39.4365 48.0039C39.3965 48.0206 39.356 48.0361 39.3154 48.0518ZM22.4629 48.0195C22.4782 48.0258 22.4934 48.032 22.5088 48.0381C22.4934 48.032 22.4782 48.0258 22.4629 48.0195ZM39.79 47.8379C39.6859 47.8922 39.5792 47.9419 39.4707 47.9883C39.5792 47.9419 39.6859 47.8922 39.79 47.8379ZM22.2432 47.9238C22.2842 47.9431 22.3256 47.9615 22.3672 47.9795C22.3256 47.9615 22.2842 47.9431 22.2432 47.9238ZM22.0859 47.8467C22.123 47.8658 22.1606 47.8842 22.1982 47.9024C22.1606 47.8842 22.123 47.8658 22.0859 47.8467ZM39.8379 47.8135C39.8668 47.798 39.8953 47.7817 39.9238 47.7656C39.8953 47.7817 39.8668 47.798 39.8379 47.8135ZM21.917 47.7539C21.9443 47.7695 21.9713 47.7858 21.999 47.8008C21.9713 47.7857 21.9443 47.7695 21.917 47.7539ZM40.0186 47.711C40.035 47.7011 40.0511 47.6907 40.0674 47.6807C40.0511 47.6907 40.035 47.7012 40.0186 47.711ZM21.7812 47.6738C21.7978 47.684 21.8144 47.6941 21.8311 47.7041C21.8144 47.6941 21.7978 47.684 21.7812 47.6738ZM21.6074 47.5615C21.6244 47.5731 21.641 47.5854 21.6582 47.5967C21.641 47.5853 21.6244 47.5731 21.6074 47.5615ZM40.333 47.5059C40.4378 47.4313 40.5395 47.3525 40.6377 47.2695C40.5395 47.3525 40.4378 47.4313 40.333 47.5059ZM21.3867 47.4024C21.4295 47.4353 21.4727 47.4676 21.5166 47.499C21.4727 47.4676 21.4295 47.4353 21.3867 47.4024ZM21.2695 47.3086C21.301 47.3345 21.3321 47.3607 21.3643 47.3858C21.3321 47.3607 21.301 47.3345 21.2695 47.3086ZM40.8408 47.086C40.8695 47.0587 40.8988 47.032 40.9268 47.0039C40.8988 47.032 40.8695 47.0587 40.8408 47.086ZM20.7949 46.8594C20.8614 46.9319 20.9301 47.0023 21.001 47.0703C20.9301 47.0022 20.8614 46.932 20.7949 46.8594ZM40.9932 46.9346C41.0172 46.9095 41.0419 46.885 41.0654 46.8594C41.0419 46.885 41.0172 46.9095 40.9932 46.9346ZM41.2422 32.4766C38.0813 34.082 34.57 34.9375 30.9297 34.9375C27.2882 34.9375 23.7749 34.083 20.6133 32.4766L22.5352 43.9844L22.6133 44.2852C22.8535 44.9599 23.4857 45.4177 24.2188 45.418H37.6406C38.4782 45.4178 39.1846 44.8205 39.3242 43.9844L41.2422 32.4766ZM41.1133 46.8047C41.1393 46.7754 41.1651 46.7459 41.1904 46.7158C41.1651 46.7458 41.1393 46.7754 41.1133 46.8047ZM41.2549 46.6367C41.2771 46.6092 41.2997 46.5818 41.3213 46.5537C41.2997 46.5818 41.2771 46.6092 41.2549 46.6367ZM20.5244 46.5371C20.5493 46.5698 20.5749 46.6019 20.6006 46.6338C20.5749 46.6019 20.5493 46.5698 20.5244 46.5371ZM41.3662 46.4942C41.3893 46.4631 41.4112 46.4311 41.4336 46.3994C41.4112 46.4311 41.3893 46.4631 41.3662 46.4942ZM20.2959 46.209C20.2244 46.0962 20.1576 45.9799 20.0957 45.8604C20.1577 45.9798 20.2244 46.0962 20.2959 46.209ZM41.4795 46.334C41.5006 46.303 41.5216 46.2718 41.542 46.2402C41.5216 46.2718 41.5006 46.303 41.4795 46.334ZM41.5996 46.1485C41.6111 46.1297 41.6225 46.1108 41.6338 46.0918C41.6225 46.1108 41.6111 46.1297 41.5996 46.1485ZM41.7002 45.9766C41.7116 45.956 41.7223 45.9349 41.7334 45.9141C41.7223 45.9349 41.7116 45.956 41.7002 45.9766ZM41.7812 45.8242C41.7976 45.7919 41.8134 45.7593 41.8291 45.7266C41.8134 45.7593 41.7976 45.7919 41.7812 45.8242ZM19.9326 45.5098C19.9508 45.5535 19.9698 45.5967 19.9893 45.6397C19.9698 45.5967 19.9508 45.5535 19.9326 45.5098ZM41.8711 45.6367C41.8895 45.596 41.9075 45.5551 41.9248 45.5137C41.9075 45.5551 41.8895 45.596 41.8711 45.6367ZM40.2656 45.4434C40.2408 45.4812 40.2149 45.5181 40.1885 45.5547C40.2149 45.5181 40.2407 45.4812 40.2656 45.4434ZM19.6328 44.4688C19.6904 44.814 19.7851 45.1444 19.9111 45.457C19.7854 45.1448 19.6913 44.8145 19.6338 44.4697L18.9219 40.209L19.6328 44.4688ZM41.9473 45.457C41.9633 45.4172 41.9792 45.3773 41.9941 45.3369C41.9792 45.3773 41.9633 45.4172 41.9473 45.457ZM40.7461 44.2227L40.6016 44.7735C40.5927 44.7982 40.5817 44.8222 40.5723 44.8467C40.6491 44.6477 40.7097 44.4388 40.7461 44.2207L40.7598 44.1387L40.7461 44.2227ZM44.9277 28.2793L42.2256 44.4697C42.2241 44.4789 42.2213 44.4879 42.2197 44.4971L42.2266 44.4688L44.9297 28.2774L44.9277 28.2793ZM37.4268 30.9082C37.5032 30.8819 37.5802 30.8574 37.6562 30.8301L37.6846 30.8194C37.5991 30.8502 37.5127 30.8786 37.4268 30.9082ZM24.2031 30.8301C24.299 30.8645 24.3957 30.8968 24.4922 30.9297C24.2428 30.8446 23.9946 30.7562 23.749 30.6611L24.2031 30.8301ZM30.9297 -6.55077C25.9904 -6.55074 21.3536 -4.62573 17.8594 -1.12108C14.3648 2.3846 12.4414 7.04035 12.4414 12C12.4414 16.9597 14.3648 21.6154 17.8594 25.1211C21.3536 28.6257 25.9905 30.5508 30.9297 30.5508C35.8696 30.5508 40.5095 28.6266 44.0039 25.1211C47.4982 21.6155 49.4179 16.9595 49.418 12C49.418 9.85786 49.0582 7.77331 48.3711 5.81642L48.375 5.81252C48.3595 5.77228 48.345 5.73217 48.332 5.69142L48.3281 5.69533C47.4196 3.16553 45.9609 0.842193 44.0039 -1.12108C40.5095 -4.62658 35.8696 -6.55077 30.9297 -6.55077ZM22.9072 30.3115C22.6518 30.1988 22.3991 30.0797 22.1484 29.9561C22.3991 30.0797 22.6517 30.1988 22.9072 30.3115ZM19.25 30.0303C19.3969 30.1264 19.5444 30.2212 19.6934 30.3135C19.5444 30.2211 19.3968 30.1264 19.25 30.0303ZM43.0166 29.7569C42.7371 29.9492 42.4543 30.1353 42.167 30.3135C42.4543 30.1354 42.7371 29.9491 43.0166 29.7569ZM39.6699 29.9756C39.4377 30.0895 39.2041 30.2001 38.9678 30.3047C39.2041 30.2002 39.4377 30.0895 39.6699 29.9756ZM44.3008 26.8242C43.7523 27.3233 43.1803 27.7883 42.5879 28.2188C43.4189 27.6149 44.2085 26.9421 44.9512 26.2041L44.3008 26.8242ZM18.9912 28.0117C18.4983 27.6402 18.0202 27.2442 17.5586 26.8242L16.9072 26.2041C17.5661 26.8589 18.2621 27.4623 18.9912 28.0117ZM46.8027 26.4434C46.5695 26.7007 46.3298 26.9536 46.083 27.2012C46.0733 27.211 46.0625 27.2198 46.0527 27.2295L46.082 27.2031C46.3293 26.955 46.5691 26.7013 46.8027 26.4434ZM47.2256 25.961C47.3169 25.854 47.408 25.7471 47.4971 25.6387C47.408 25.7471 47.3169 25.854 47.2256 25.961ZM47.6533 25.4453C47.7003 25.3867 47.7466 25.3276 47.793 25.2686C47.7466 25.3276 47.7003 25.3867 47.6533 25.4453ZM47.9678 25.043C48.0175 24.9779 48.0663 24.9123 48.1152 24.8467C48.0663 24.9123 48.0175 24.9779 47.9678 25.043ZM48.2197 24.7051C48.2939 24.6039 48.3681 24.5028 48.4404 24.4004C48.3681 24.5027 48.294 24.6039 48.2197 24.7051ZM13.5029 24.5176C13.5154 24.535 13.5285 24.552 13.541 24.5694C13.5285 24.552 13.5154 24.535 13.5029 24.5176ZM48.5254 24.2793C48.5861 24.1922 48.6458 24.1045 48.7051 24.0166C48.6458 24.1045 48.5861 24.1922 48.5254 24.2793ZM48.8398 23.8145C48.8819 23.7506 48.9235 23.6864 48.9648 23.6221C48.9235 23.6864 48.8819 23.7506 48.8398 23.8145ZM49.124 23.3701C49.1546 23.3211 49.1847 23.2719 49.2148 23.2227C49.1847 23.2719 49.1546 23.3211 49.124 23.3701ZM49.3916 22.9287C49.4173 22.8851 49.4433 22.8417 49.4688 22.7979C49.4433 22.8416 49.4174 22.8851 49.3916 22.9287ZM49.6377 22.502C49.6635 22.4559 49.6885 22.4095 49.7139 22.3633C49.6885 22.4095 49.6635 22.4559 49.6377 22.502ZM51.3555 18.5313C51.373 18.476 51.3902 18.4207 51.4072 18.3652C51.3902 18.4207 51.373 18.476 51.3555 18.5313ZM10.4561 18.3809C10.4674 18.4177 10.4787 18.4545 10.4902 18.4912C10.4787 18.4545 10.4674 18.4177 10.4561 18.3809ZM51.6367 17.5645C51.6515 17.5085 51.6663 17.4526 51.6807 17.3965C51.6663 17.4526 51.6516 17.5085 51.6367 17.5645ZM10.1816 17.4072C10.1923 17.4486 10.203 17.49 10.2139 17.5313C10.203 17.49 10.1923 17.4486 10.1816 17.4072ZM51.7646 17.0547C51.7725 17.0218 51.7804 16.989 51.7881 16.9561C51.7804 16.989 51.7725 17.0218 51.7646 17.0547ZM10.0742 16.9717C10.0789 16.9915 10.0832 17.0114 10.0879 17.0313C10.0832 17.0114 10.0789 16.9915 10.0742 16.9717ZM30.9297 -3.32909C32.0105 -3.32909 32.8789 -2.45066 32.8789 -1.37596V10.5342L38.957 12.3115C39.9924 12.6148 40.5804 13.6981 40.2812 14.7295C40.0334 15.5824 39.2565 16.1356 38.4102 16.1358C38.2278 16.1358 38.0434 16.1102 37.8633 16.0576L30.3828 13.874C29.5493 13.6301 28.9805 12.8643 28.9805 11.999V-1.37596C28.9805 -2.4507 29.8491 -3.32891 30.9297 -3.32909ZM39.1562 14.1621C39.1559 14.149 39.1563 14.136 39.1553 14.1231C39.1563 14.1361 39.1559 14.149 39.1562 14.1621ZM39.1445 14.0508C39.1401 14.0261 39.1357 14.0016 39.1289 13.9776C39.1358 14.0016 39.14 14.0261 39.1445 14.0508ZM39.1113 13.9268C39.1017 13.9 39.0907 13.8741 39.0781 13.8486C39.0908 13.8741 39.1015 13.9 39.1113 13.9268ZM39.0547 13.8047C39.038 13.776 39.0193 13.749 38.999 13.7227C39.0194 13.7489 39.0379 13.7761 39.0547 13.8047ZM38.9785 13.6953C38.9535 13.6659 38.926 13.6387 38.8965 13.6133C38.9261 13.6387 38.9534 13.6659 38.9785 13.6953ZM38.75 13.5137C38.7967 13.5374 38.8401 13.5656 38.8799 13.5977C38.8433 13.5681 38.8042 13.5411 38.7617 13.5186L38.75 13.5137ZM38.6191 13.4619C38.6324 13.4658 38.6454 13.4711 38.6582 13.4756L38.6211 13.46L33.9932 12.1104L38.6191 13.4619ZM9.50586 11.4688C9.5141 11.1255 9.53155 10.7837 9.55566 10.4434C9.53156 10.7837 9.5141 11.1255 9.50586 11.4688ZM9.59766 9.92384C9.58792 10.0265 9.58056 10.1295 9.57227 10.2324C9.58056 10.1295 9.58791 10.0265 9.59766 9.92384ZM9.65332 9.41408C9.64525 9.48201 9.63829 9.5501 9.63086 9.61818C9.63829 9.5501 9.64525 9.48201 9.65332 9.41408ZM9.72266 8.87794C9.70913 8.9718 9.69785 9.06602 9.68555 9.16017C9.69786 9.06602 9.70913 8.9718 9.72266 8.87794ZM9.79785 8.39455C9.78035 8.49915 9.76402 8.60401 9.74805 8.709C9.76403 8.60401 9.78035 8.49915 9.79785 8.39455ZM50.2188 6.9424C50.339 7.40668 50.4415 7.8765 50.5283 8.3506C50.4415 7.8765 50.339 7.40671 50.2188 6.9424ZM9.89551 7.85939C9.87741 7.95299 9.85965 8.0467 9.84277 8.14064C9.85965 8.04671 9.8774 7.95299 9.89551 7.85939ZM9.99902 7.35646C9.97716 7.45659 9.95501 7.55671 9.93457 7.65724C9.95502 7.55671 9.97716 7.45659 9.99902 7.35646ZM10.1152 6.85255C10.0895 6.95814 10.0642 7.06387 10.04 7.16994C10.0642 7.06387 10.0895 6.95814 10.1152 6.85255ZM10.2383 6.37209C10.2092 6.48055 10.1807 6.58925 10.1533 6.69826C10.1808 6.58925 10.2092 6.48055 10.2383 6.37209ZM49.1572 3.8965C49.3476 4.32717 49.5243 4.76371 49.6836 5.20705C49.6947 5.25164 49.7108 5.29713 49.7305 5.33986C49.786 5.49791 49.8391 5.65689 49.8906 5.81642C49.8392 5.65728 49.7868 5.49852 49.7314 5.34084C49.7116 5.29785 49.6958 5.25388 49.6846 5.209C49.5252 4.76506 49.3479 4.32771 49.1572 3.8965ZM10.5723 5.25197C10.5221 5.40471 10.4735 5.55797 10.4268 5.71193C10.4735 5.55798 10.5221 5.4047 10.5723 5.25197ZM10.6689 4.96486C10.6412 5.04545 10.6137 5.1261 10.5869 5.20705C10.6137 5.12611 10.6412 5.04544 10.6689 4.96486ZM11.5498 2.79787C11.3243 3.27514 11.1161 3.7603 10.9268 4.25294C11.1161 3.76032 11.3242 3.27511 11.5498 2.79787ZM51.6836 3.22658L50.7744 3.85744L50.7754 3.85939L51.6855 3.22755C51.6892 3.22504 51.6926 3.22219 51.6963 3.21974C51.6918 3.22167 51.6874 3.22396 51.6836 3.22658ZM48.6396 2.81349C48.7209 2.97071 48.8 3.12887 48.877 3.2881C48.8 3.12888 48.7209 2.9707 48.6396 2.81349ZM53.4658 3.04201C53.4704 3.01561 53.4749 2.98933 53.4785 2.96291C53.4749 2.98934 53.4704 3.0156 53.4658 3.04201ZM53.4893 2.8633C53.4919 2.83396 53.4937 2.80471 53.4951 2.77541C53.4937 2.80472 53.4918 2.83395 53.4893 2.8633ZM53.4678 2.31154C53.4894 2.43569 53.4998 2.56165 53.499 2.68849C53.5001 2.56162 53.4891 2.43572 53.4678 2.31154ZM51.9072 2.35353C51.9365 2.40254 51.9575 2.4547 51.9727 2.5088C51.9575 2.45488 51.9367 2.40267 51.9072 2.35353ZM48.1494 1.92189C48.2509 2.09589 48.3493 2.27148 48.4453 2.44826C48.3492 2.27151 48.251 2.09586 48.1494 1.92189ZM12 1.90236C11.9403 2.01476 11.8819 2.12783 11.8242 2.24123C11.8819 2.12784 11.9402 2.01475 12 1.90236ZM53.3496 1.89162C53.3752 1.95614 53.3979 2.02155 53.417 2.08791C53.3991 2.0254 53.3792 1.96325 53.3555 1.90236L53.3496 1.89162ZM12.2295 1.48048C12.1867 1.55687 12.1454 1.63409 12.1035 1.71095C12.1454 1.63409 12.1866 1.55686 12.2295 1.48048ZM53.1621 1.52541C53.1711 1.53954 53.1778 1.55506 53.1865 1.56935L53.1641 1.52345L50.9238 -1.98045L53.1621 1.52541ZM12.5029 1.00685C12.4404 1.11193 12.38 1.21818 12.3193 1.32423C12.38 1.21819 12.4404 1.11192 12.5029 1.00685ZM12.7617 0.584976C12.6938 0.693269 12.6264 0.801769 12.5605 0.911148C12.6264 0.801777 12.6938 0.693261 12.7617 0.584976ZM46.5449 -2.72166C47.4567 -1.74983 48.2689 -0.707206 48.9756 0.39357C48.2697 -0.707674 47.4586 -1.75082 46.5469 -2.72264L46.9385 -2.99413L46.5449 -2.72166ZM13.0322 0.164078C12.9661 0.264287 12.9003 0.364642 12.8359 0.465836C12.9003 0.36465 12.9661 0.26428 13.0322 0.164078ZM13.3691 -0.332016C13.4782 -0.487644 13.5897 -0.641877 13.7031 -0.794907C13.5897 -0.641866 13.4782 -0.487656 13.3691 -0.332016ZM15.2432 -0.335922C15.2482 -0.342279 15.2538 -0.348125 15.2588 -0.354477C15.2538 -0.348125 15.2482 -0.34228 15.2432 -0.335922ZM15.541 -0.707993C15.7384 -0.947639 15.943 -1.18246 16.1523 -1.41405L16.79 -2.08788C16.3506 -1.64412 15.9333 -1.18433 15.541 -0.707993ZM14.3457 -1.6201C14.5868 -1.91449 14.8378 -2.20222 15.0957 -2.48534L15.0391 -2.42577C14.8007 -2.16214 14.5696 -1.89344 14.3457 -1.6201ZM16.9316 -4.28026C16.5367 -3.93745 16.1504 -3.57724 15.7773 -3.20311L15.7373 -3.16209C15.7503 -3.17517 15.7634 -3.18811 15.7764 -3.20116C16.1503 -3.57623 16.5358 -3.93569 16.9316 -4.27928V-4.28026ZM44.9277 -4.27928C45.1077 -4.12315 45.2845 -3.96249 45.46 -3.79979L45.4609 -3.80077L44.9268 -4.28026L44.9277 -4.27928ZM20.3965 -4.97948C20.3447 -4.94701 20.2927 -4.91479 20.2412 -4.88182C20.2927 -4.91478 20.3447 -4.94701 20.3965 -4.97948ZM21.7744 -5.76756C21.6814 -5.71921 21.5884 -5.67094 21.4961 -5.62108C21.5884 -5.67093 21.6814 -5.71922 21.7744 -5.76756ZM19.5068 -6.1953C19.4499 -6.15917 19.3926 -6.12359 19.3359 -6.0869C19.3926 -6.1236 19.4499 -6.15916 19.5068 -6.1953ZM41.2695 -6.83885C41.2486 -6.85044 41.228 -6.86249 41.207 -6.87401C41.228 -6.86249 41.2486 -6.85044 41.2695 -6.83885ZM25.4551 -7.23143C25.1887 -7.15553 24.9237 -7.07522 24.6611 -6.98827C24.9237 -7.07519 25.1886 -7.15555 25.4551 -7.23143ZM40.5879 -7.20116C40.5736 -7.2084 40.5592 -7.21543 40.5449 -7.22264C40.5592 -7.21543 40.5736 -7.2084 40.5879 -7.20116ZM26.9277 -7.59081C26.6368 -7.53163 26.3477 -7.46652 26.0605 -7.39452C26.3477 -7.46649 26.6368 -7.53165 26.9277 -7.59081ZM28.4609 -7.84178V-7.84081V-7.84178ZM31.8496 -7.97069C31.7092 -7.97704 31.5686 -7.98287 31.4277 -7.98631L30.9297 -7.99217L31.8496 -7.97069ZM24.2188 -21.418C23.3812 -21.4177 22.6748 -20.8205 22.5352 -19.9844L20.6133 -8.48045C23.7745 -10.0864 27.2887 -10.9375 30.9297 -10.9375C34.5694 -10.9375 38.0817 -10.0854 41.2422 -8.48045L39.3242 -19.9844C39.1845 -20.8205 38.4782 -21.4177 37.6406 -21.418H24.2188ZM36.3223 -8.81444C36.3168 -8.81586 36.3112 -8.81692 36.3057 -8.81834C36.3112 -8.81692 36.3168 -8.81586 36.3223 -8.81444ZM20.7969 -22.8623C20.203 -22.2152 19.7871 -21.3941 19.6328 -20.4687L18.7324 -15.0732L19.6338 -20.4697C19.7881 -21.3947 20.2034 -22.2155 20.7969 -22.8623ZM42.1396 -20.873C42.1736 -20.741 42.2028 -20.6066 42.2256 -20.4697L43.126 -15.0732L42.2266 -20.4687C42.2037 -20.606 42.1738 -20.7406 42.1396 -20.873ZM42.0479 -21.1846C42.0375 -21.2156 42.0275 -21.2466 42.0166 -21.2773C42.0275 -21.2466 42.0375 -21.2156 42.0479 -21.1846ZM41.9932 -21.3389C41.9787 -21.3777 41.9647 -21.4167 41.9492 -21.4551C41.9646 -21.4167 41.9787 -21.3778 41.9932 -21.3389ZM41.9023 -21.5664C41.8879 -21.5997 41.8736 -21.6331 41.8584 -21.666C41.8736 -21.6331 41.8879 -21.5997 41.9023 -21.5664ZM41.5557 -22.2187C41.5295 -22.2598 41.503 -22.3007 41.4756 -22.3408C41.503 -22.3006 41.5295 -22.2598 41.5557 -22.2187ZM41.3271 -22.5469C41.3044 -22.5765 41.2812 -22.6057 41.2578 -22.6348C41.2812 -22.6057 41.3044 -22.5765 41.3271 -22.5469ZM21.3672 -23.3887C21.3436 -23.3703 21.3211 -23.3508 21.2979 -23.332C21.373 -23.3928 21.4495 -23.4518 21.5283 -23.5078L21.3672 -23.3887ZM40.4941 -23.3867C40.4442 -23.4256 40.3933 -23.4632 40.3418 -23.5C40.3933 -23.4632 40.4442 -23.4256 40.4941 -23.3867ZM40.251 -23.5625C40.2339 -23.574 40.2174 -23.5863 40.2002 -23.5976C40.2174 -23.5863 40.2339 -23.5741 40.251 -23.5625ZM39.9141 -23.7715C39.8969 -23.7811 39.8796 -23.7904 39.8623 -23.7998C39.8796 -23.7904 39.8969 -23.7811 39.9141 -23.7715ZM39.5752 -23.9424C39.5563 -23.951 39.5376 -23.9603 39.5186 -23.9687C39.5376 -23.9603 39.5563 -23.951 39.5752 -23.9424ZM23.1797 -24.2471C22.8915 -24.1815 22.6134 -24.0883 22.3477 -23.9717C22.6753 -24.1155 23.022 -24.2228 23.3828 -24.2881L23.1797 -24.2471ZM39.3906 -24.0224C39.377 -24.028 39.3633 -24.0336 39.3496 -24.039C39.3633 -24.0336 39.377 -24.028 39.3906 -24.0224ZM39.207 -24.0928C39.1928 -24.0978 39.1784 -24.1025 39.1641 -24.1074C39.1784 -24.1025 39.1928 -24.0978 39.207 -24.0928ZM39.0254 -24.1533C39.0121 -24.1574 38.9987 -24.161 38.9854 -24.165C38.9987 -24.161 39.0121 -24.1574 39.0254 -24.1533ZM38.835 -24.208C38.8249 -24.2107 38.8148 -24.2132 38.8047 -24.2158C38.8148 -24.2132 38.8249 -24.2107 38.835 -24.208ZM24.2188 -24.3633H24.2197H24.2188ZM40.7236 47.1953C40.7472 47.1744 40.7708 47.1533 40.7939 47.1319C40.7708 47.1533 40.7472 47.1744 40.7236 47.1953ZM20.416 46.3877C20.4472 46.4322 20.479 46.4762 20.5117 46.5195C20.479 46.4762 20.4472 46.4322 20.416 46.3877ZM20.0166 45.6992C20.0381 45.7449 20.0601 45.7902 20.083 45.835C20.0601 45.7902 20.0381 45.7449 20.0166 45.6992ZM20.2959 46.209C20.324 46.2533 20.3533 46.2967 20.3828 46.3399C20.3533 46.2966 20.324 46.2533 20.2959 46.209ZM36.9033 31.082C37.0202 31.0454 37.1368 31.0076 37.2529 30.9688C37.1368 31.0076 37.0202 31.0454 36.9033 31.082ZM21.7207 29.7393C21.8418 29.8027 21.9636 29.8649 22.0859 29.9258C21.9636 29.8649 21.8418 29.8028 21.7207 29.7393ZM46.8848 26.3516C46.9806 26.2446 47.0755 26.1369 47.1689 26.0283C47.0754 26.1369 46.9806 26.2446 46.8848 26.3516ZM10.3789 5.87306C10.3492 5.97374 10.3202 6.07462 10.292 6.1758C10.3202 6.07463 10.3492 5.97374 10.3789 5.87306ZM12.1641 5.2383C12.145 5.29152 12.127 5.34506 12.1084 5.39845C12.127 5.34507 12.145 5.29151 12.1641 5.2383ZM11.7666 2.35353C11.6927 2.5009 11.6202 2.64889 11.5498 2.79787C11.6202 2.6489 11.6927 2.50089 11.7666 2.35353ZM53.4648 2.29591C53.4537 2.23416 53.4404 2.17292 53.4238 2.11232C53.4405 2.17288 53.4536 2.23421 53.4648 2.29591ZM13.9971 -1.18163C13.8976 -1.0536 13.7994 -0.924854 13.7031 -0.794907C13.7994 -0.924845 13.8976 -1.05361 13.9971 -1.18163ZM13.3691 -0.332016C13.2887 -0.217246 13.2099 -0.101483 13.1318 0.0146637C13.2099 -0.101474 13.2887 -0.217254 13.3691 -0.332016ZM14.249 -1.49998C14.177 -1.41071 14.1047 -1.32169 14.0342 -1.23143C14.1047 -1.32169 14.177 -1.41071 14.249 -1.49998ZM14.249 -1.49998C14.2813 -1.53996 14.3131 -1.58033 14.3457 -1.6201C14.3131 -1.58032 14.2813 -1.53996 14.249 -1.49998ZM42.123 -20.9346C42.1092 -20.9853 42.0955 -21.0359 42.0801 -21.0859C42.0955 -21.0359 42.1093 -20.9853 42.123 -20.9346ZM41.8418 -21.7002C41.82 -21.7465 41.7977 -21.7925 41.7744 -21.8379C41.7976 -21.7925 41.82 -21.7465 41.8418 -21.7002ZM41.7568 -21.8721C41.7305 -21.9225 41.7029 -21.9722 41.6748 -22.0215C41.7029 -21.9722 41.7305 -21.9225 41.7568 -21.8721ZM41.6602 -22.0469C41.6329 -22.094 41.605 -22.1405 41.5762 -22.1865C41.605 -22.1405 41.6329 -22.094 41.6602 -22.0469ZM41.4424 -22.3887C41.4109 -22.4335 41.3787 -22.4778 41.3457 -22.5215C41.3787 -22.4778 41.4109 -22.4336 41.4424 -22.3887ZM40.5615 -23.332C40.539 -23.3502 40.517 -23.3689 40.4941 -23.3867C40.517 -23.3689 40.539 -23.3502 40.5615 -23.332Z" fill="url(#paint2_linear_0_1)" fill-opacity="0.25"/>
</g>
</g>
<defs>
<filter id="filter0_d_0_1" x="-2" y="-1" width="106" height="39" filterUnits="userSpaceOnUse" color-interpolation-filters="sRGB">
<feFlood flood-opacity="0" result="BackgroundImageFix"/>
<feColorMatrix in="SourceAlpha" type="matrix" values="0 0 0 0 0 0 0 0 0 0 0 0 0 0 0 0 0 0 127 0" result="hardAlpha"/>
<feOffset dy="1"/>
<feGaussianBlur stdDeviation="1"/>
<feComposite in2="hardAlpha" operator="out"/>
<feColorMatrix type="matrix" values="0 0 0 0 0 0 0 0 0 0 0 0 0 0 0 0 0 0 0.2 0"/>
<feBlend mode="normal" in2="BackgroundImageFix" result="effect1_dropShadow_0_1"/>
<feBlend mode="normal" in="SourceGraphic" in2="effect1_dropShadow_0_1" result="shape"/>
</filter>
<linearGradient id="paint0_linear_0_1" x1="1506.66" y1="-1466.28" x2="1201.46" y2="2688.13" gradientUnits="userSpaceOnUse">
<stop stop-color="#8341FF"/>
<stop offset="0.352002" stop-color="#E7E7F3"/>
<stop offset="0.655269" stop-color="#F1F1F9"/>
</linearGradient>
<radialGradient id="paint1_radial_0_1" cx="0" cy="0" r="1" gradientUnits="userSpaceOnUse" gradientTransform="translate(53.1683 37.9303) rotate(-90) scale(37.9303 93.6138)">
<stop stop-color="#58B7F2"/>
<stop offset="0.913751" stop-color="#4F72FD"/>
</radialGradient>
<linearGradient id="paint2_linear_0_1" x1="31.4987" y1="-25.8047" x2="31.4987" y2="49.8047" gradientUnits="userSpaceOnUse">
<stop stop-color="white"/>
<stop offset="1" stop-color="white" stop-opacity="0"/>
</linearGradient>
<clipPath id="clip0_0_1">
<rect width="2615" height="2695.93" fill="white" transform="translate(-206 -484)"/>
</clipPath>
<clipPath id="clip1_0_1">
<rect width="102" height="35" fill="white"/>
</clipPath>
</defs>
</svg>
