<svg width="20" height="20" viewBox="0 0 20 20" fill="none" xmlns="http://www.w3.org/2000/svg">
    <path d="M16.5061 5.96215L9.94598 9.60665M9.94598 9.60665L3.38586 5.96215M9.94598 9.60665L9.946 16.9386M16.892 12.739V6.47437C16.892 6.20993 16.892 6.07771 16.853 5.95978C16.8186 5.85545 16.7622 5.75969 16.6878 5.67889C16.6036 5.58756 16.488 5.52335 16.2569 5.39492L10.5457 2.22206C10.3268 2.10046 10.2174 2.03966 10.1015 2.01582C9.9989 1.99473 9.89311 1.99473 9.79053 2.01582C9.67463 2.03966 9.56519 2.10046 9.34631 2.22206L3.63515 5.39493C3.40399 5.52335 3.2884 5.58757 3.20424 5.6789C3.12978 5.75969 3.07343 5.85546 3.03896 5.95978C3 6.07771 3 6.20993 3 6.47438V12.739C3 13.0034 3 13.1356 3.03896 13.2536C3.07343 13.3579 3.12978 13.4537 3.20424 13.5345C3.2884 13.6258 3.40399 13.69 3.63515 13.8184L9.34631 16.9913C9.56519 17.1129 9.67463 17.1737 9.79053 17.1975C9.89311 17.2186 9.9989 17.2186 10.1015 17.1975C10.2174 17.1737 10.3268 17.1129 10.5457 16.9913L16.2569 13.8184C16.488 13.69 16.6036 13.6258 16.6878 13.5345C16.7622 13.4537 16.8186 13.3579 16.853 13.2536C16.892 13.1356 16.892 13.0034 16.892 12.739Z"
          stroke="currentColor" stroke-width="1.3892" stroke-linecap="round" stroke-linejoin="round"/>
</svg>
