<svg width="16" height="16" viewBox="0 0 16 16" fill="white" xmlns="http://www.w3.org/2000/svg">
    <path d="M7.84631 0.761658C3.95463 0.761658 0.799805 3.91649 0.799805 7.80816C0.799805 11.7 3.95463 14.8548 7.84631 14.8548C11.7381 14.8548 14.893 11.7 14.893 7.80816C14.893 3.91647 11.7381 0.761658 7.84631 0.761658ZM7.48921 2.37394C7.48921 2.17666 7.64918 2.01684 7.84646 2.01684C8.04374 2.01684 8.20374 2.17666 8.20374 2.37394V2.70108C8.20374 2.89836 8.04376 3.05835 7.84646 3.05835C7.64918 3.05835 7.48921 2.89838 7.48921 2.70108V2.37394ZM2.73924 8.16542H2.41226C2.21498 8.16542 2.05499 8.0056 2.05499 7.80832C2.05499 7.61104 2.21496 7.45104 2.41226 7.45104H2.73924C2.93652 7.45104 3.09652 7.61102 3.09652 7.80832C3.09652 8.0056 2.93652 8.16542 2.73924 8.16542ZM8.20374 13.2425C8.20374 13.4398 8.04376 13.5998 7.84646 13.5998C7.64918 13.5998 7.48921 13.4398 7.48921 13.2425V12.9154C7.48921 12.7181 7.64918 12.5583 7.84646 12.5583C8.04374 12.5583 8.20374 12.7181 8.20374 12.9154V13.2425ZM10.0636 8.78349C10.0047 8.91725 9.87379 8.997 9.73644 8.997C9.68836 8.997 9.63968 8.98718 9.59285 8.96672L7.70257 8.13528C7.57286 8.07816 7.48921 7.94986 7.48921 7.8083V3.88275C7.48921 3.68547 7.64918 3.52565 7.84646 3.52565C8.04374 3.52565 8.20374 3.68547 8.20374 3.88275V7.57512L9.8805 8.31259C10.0611 8.39204 10.143 8.60292 10.0636 8.78349ZM13.2807 8.16542H12.9535C12.7563 8.16542 12.5964 8.0056 12.5964 7.80832C12.5964 7.61104 12.7563 7.45104 12.9535 7.45104H13.2807C13.478 7.45104 13.6379 7.61102 13.6379 7.80832C13.6379 8.0056 13.478 8.16542 13.2807 8.16542Z"
          fill="white"/>
</svg>
