<svg width="7" height="7" viewBox="0 0 7 7" fill="none" xmlns="http://www.w3.org/2000/svg">
<g clip-path="url(#clip0_1_4188)">
<path d="M5.36528 5.36472H1.41206C1.27087 5.36472 1.15792 5.28 1.12969 5.13882L0.564941 2.31509C0.564941 2.20214 0.593179 2.08919 0.706128 2.00448C0.819077 1.948 0.932026 1.948 1.01674 2.00448L2.17447 2.93631L3.13453 1.49621C3.24748 1.32678 3.50162 1.32678 3.61457 1.49621L4.57464 2.93631L5.73236 2.00448C5.81708 1.91977 5.95826 1.91977 6.04297 2.00448C6.15592 2.06095 6.18416 2.1739 6.18416 2.31509L5.61941 5.13882C5.61941 5.28 5.47823 5.36472 5.33704 5.36472H5.36528Z" fill="white"/>
</g>
<defs>
<clipPath id="clip0_1_4188">
<rect width="6.77695" height="6.77695" fill="white"/>
</clipPath>
</defs>
</svg>
