<svg width="16" height="16" viewBox="0 0 16 16" fill="none" xmlns="http://www.w3.org/2000/svg">
<path d="M8.22406 2.32016C8.31101 2.04928 8.1224 1.73747 7.8685 1.86581C7.13455 2.23683 6.2296 3.10578 6.62839 5.10119C6.62839 5.10119 6.71535 5.72235 7.03419 6.51293C7.35302 7.30352 7.52695 8.4894 6.65741 8.99766C5.92494 9.4258 4.6577 9.29291 4.0858 7.99152C3.97012 7.72827 3.59556 7.68438 3.50475 7.95722C3.01324 9.43398 2.57808 12.4835 6.77338 13.6C6.77338 13.6 5.72992 12.8659 6.16465 12.0188C6.59946 11.1718 9.23709 11.3694 9.46896 8.91295C9.46896 8.91295 11.382 11.8212 9.09218 13.4588C9.09218 13.4588 13.2806 11.7223 11.9327 7.86823C11.9327 7.86823 11.6213 6.70849 10.2806 5.6659C9.46361 5.03064 7.79687 3.65086 8.22406 2.32016Z" fill="currentColor"/>
</svg>
