<svg width="28" height="28" viewBox="0 0 28 28" fill="none" xmlns="http://www.w3.org/2000/svg">
    <g clip-path="url(#clip0_1_4009)">
        <path d="M19.9786 2.96717L11.019 2.32023C10.4173 2.27679 9.70173 2.41745 9.03347 2.67922C8.36522 2.94098 7.74451 3.32375 7.33239 3.76432L1.19592 10.3246C0.371701 11.2058 0.0574083 12.8459 0.497472 13.9693L3.8976 22.6495C4.33767 23.773 5.67477 24.8332 6.86908 25.0055L16.2612 26.3609C16.8584 26.447 17.5565 26.3335 18.2003 26.0813C18.8442 25.8291 19.4336 25.4382 19.8135 24.9694L25.7861 17.5954C26.5457 16.6578 26.807 14.9715 26.3669 13.848L22.9668 5.16785C22.5267 4.04441 21.1821 3.05414 19.9786 2.96717ZM10.6979 6.92837C11.685 6.54173 12.6644 6.68555 12.8854 7.24983C13.1062 7.81361 12.4851 8.58439 11.498 8.97103C10.511 9.35766 9.53159 9.21385 9.31075 8.65007C9.08971 8.08578 9.71087 7.315 10.6979 6.92837ZM8.5973 22.777C8.50957 22.8739 8.40342 22.9454 8.28398 22.9922C7.76198 23.1967 6.98419 22.9329 6.36379 22.2911C5.60114 21.5024 5.365 20.441 5.83583 19.9205C5.92364 19.8234 6.02986 19.752 6.14941 19.7052C6.67154 19.5007 7.44928 19.7643 8.06954 20.4062C8.83219 21.1949 9.06834 22.2563 8.5973 22.777ZM6.39693 17.1597C6.3092 17.2566 6.20305 17.3281 6.08361 17.3749C5.56161 17.5793 4.78382 17.3156 4.16342 16.6737C3.40077 15.885 3.16463 14.8237 3.63546 14.3032C3.72327 14.2061 3.82949 14.1347 3.94904 14.0879C4.47117 13.8833 5.24891 14.147 5.86917 14.7889C6.63182 15.5776 6.86797 16.6389 6.39693 17.1597ZM14.8041 23.5853C14.7164 23.6822 14.6103 23.7537 14.4908 23.8005C13.9688 24.005 13.191 23.7412 12.5706 23.0994C11.808 22.3107 11.5718 21.2493 12.0427 20.7288C12.1305 20.6317 12.2367 20.5603 12.3562 20.5135C12.8784 20.309 13.6561 20.5727 14.2764 21.2145C15.039 22.0032 15.2752 23.0646 14.8041 23.5853ZM12.6038 17.968C12.516 18.0649 12.4099 18.1364 12.2905 18.1832C11.7684 18.3877 10.9907 18.1239 10.3703 17.4821C9.60762 16.6933 9.37146 15.632 9.8423 15.1115C9.93011 15.0144 10.0363 14.943 10.1559 14.8962C10.678 14.6917 11.4557 14.9553 12.076 15.5972C12.8387 16.3859 13.0748 17.4473 12.6038 17.968ZM20.3069 20.069C20.2875 20.9614 19.8958 21.6833 19.3738 21.8878C19.2544 21.9346 19.1279 21.9542 18.9977 21.9427C18.2983 21.8804 17.7507 20.941 17.7748 19.8442C17.794 18.9518 18.1858 18.23 18.7079 18.0255C18.8275 17.9787 18.9539 17.9589 19.0843 17.9705C19.7834 18.0328 20.3309 18.9721 20.3069 20.069ZM18.1065 14.4517C18.0871 15.3441 17.6954 16.066 17.1734 16.2705C17.054 16.3173 16.9275 16.3369 16.7973 16.3253C16.0979 16.2631 15.5503 15.3237 15.5744 14.2268C15.5937 13.3345 15.9854 12.6127 16.5075 12.4082C16.6271 12.3613 16.7535 12.3416 16.8839 12.3532C17.583 12.4154 18.1306 13.3548 18.1065 14.4517ZM24.3134 15.26C24.294 16.1524 23.9023 16.8743 23.3803 17.0788C23.2608 17.1256 23.1344 17.1452 23.0041 17.1337C22.3047 17.0714 21.7572 16.132 21.7812 15.0352C21.8005 14.1428 22.1922 13.421 22.7144 13.2165C22.834 13.1697 22.9604 13.1499 23.0908 13.1615C23.7899 13.2238 24.3374 14.1631 24.3134 15.26ZM22.113 9.64268C22.0936 10.5351 21.7019 11.257 21.1799 11.4615C21.0605 11.5083 20.934 11.5279 20.8038 11.5163C20.1044 11.4541 19.5568 10.5147 19.5809 9.41784C19.6001 8.52546 19.9919 7.80369 20.514 7.59917C20.6336 7.55233 20.76 7.53259 20.8904 7.54421C21.5895 7.60643 22.1371 8.54581 22.113 9.64268ZM21.1871 5.06658L13.9604 13.7534L18.1431 24.4315C18.2536 24.7135 18.1145 25.0317 17.8325 25.1422C17.5504 25.2526 17.2322 25.1135 17.1218 24.8315L12.9542 14.1922L1.63152 12.64C1.33127 12.5993 1.12095 12.323 1.16159 12.023C1.20241 11.7229 1.47859 11.5128 1.77864 11.553L13.0758 13.1017L20.3429 4.36615C20.5369 4.13316 20.8823 4.10096 21.1152 4.2943C21.3483 4.48773 21.3805 4.83349 21.1871 5.06658Z"
              fill="currentColor"/>
    </g>
    <defs>
        <clipPath id="clip0_1_4009">
            <rect width="28" height="28" fill="white"/>
        </clipPath>
    </defs>
</svg>
