<svg width="20" height="20" viewBox="0 0 20 20" fill="none" xmlns="http://www.w3.org/2000/svg">
    <path d="M9.74807 7.25034V17.0004M9.74807 7.25034C9.47677 6.13239 9.00965 5.17663 8.40761 4.5077C7.80558 3.83877 7.09657 3.48772 6.37306 3.50033C5.87577 3.50033 5.39886 3.69787 5.04723 4.0495C4.6956 4.40114 4.49805 4.87805 4.49805 5.37533C4.49805 5.87262 4.6956 6.34953 5.04723 6.70116C5.39886 7.05279 5.87577 7.25034 6.37306 7.25034M9.74807 7.25034C10.0194 6.13239 10.4865 5.17663 11.0885 4.5077C11.6906 3.83877 12.3996 3.48772 13.1231 3.50033C13.6204 3.50033 14.0973 3.69787 14.4489 4.0495C14.8005 4.40114 14.9981 4.87805 14.9981 5.37533C14.9981 5.87262 14.8005 6.34953 14.4489 6.70116C14.0973 7.05279 13.6204 7.25034 13.1231 7.25034M14.9981 10.2503V15.5004C14.9981 15.8982 14.84 16.2797 14.5587 16.561C14.2774 16.8423 13.8959 17.0004 13.4981 17.0004H5.99805C5.60023 17.0004 5.2187 16.8423 4.93739 16.561C4.65609 16.2797 4.49805 15.8982 4.49805 15.5004V10.2503M2.99805 8.00034C2.99805 7.80143 3.07706 7.61066 3.21772 7.47001C3.35837 7.32936 3.54914 7.25034 3.74805 7.25034H15.7481C15.947 7.25034 16.1378 7.32936 16.2784 7.47001C16.4191 7.61066 16.4981 7.80143 16.4981 8.00034V9.50034C16.4981 9.69926 16.4191 9.89002 16.2784 10.0307C16.1378 10.1713 15.947 10.2503 15.7481 10.2503H3.74805C3.54914 10.2503 3.35837 10.1713 3.21772 10.0307C3.07706 9.89002 2.99805 9.69926 2.99805 9.50034V8.00034Z"
          stroke="currentColor" stroke-width="1.35" stroke-linecap="round" stroke-linejoin="round"/>
</svg>
