<svg width="16" height="16" viewBox="0 0 16 16" fill="none" xmlns="http://www.w3.org/2000/svg">
    <path d="M11.9308 4.07495C11.9308 3.35211 11.4387 2.40002 10.2338 2.40002C9.52962 2.40002 8.69809 2.90251 8.29074 4.09259C7.88353 2.90251 7.05203 2.40002 6.34771 2.40002C5.14292 2.40002 4.65072 3.35211 4.65072 4.07495C4.65072 5.52063 6.11009 6.10244 7.43368 6.10244H9.1475C10.4711 6.10244 11.9308 5.52066 11.9308 4.07495ZM3.20012 12.4906C3.20012 13.3897 3.83648 14.0362 4.70193 14.0362H7.86655V10.9508H3.19995L3.20012 12.4906ZM3.20012 8.52983V10.0696H7.86672V6.98419H4.7021C3.83665 6.98419 3.20012 7.63065 3.20012 8.52983ZM8.71517 14.0364H11.8798C12.7452 14.0364 13.3816 13.3899 13.3816 12.4907V10.951H8.715L8.71517 14.0364ZM5.38067 4.0753C5.38067 3.61695 5.76249 3.15849 6.34798 3.15849C6.90794 3.15849 7.76484 3.72263 7.76484 5.34468C7.05213 5.34468 5.38067 5.34464 5.38067 4.0753ZM11.8798 6.98433H8.71517V10.0697H13.3818V8.52997C13.3818 7.63079 12.7452 6.98433 11.8798 6.98433ZM10.2338 3.15842C10.8193 3.15842 11.2011 3.61677 11.2011 4.07523C11.2011 5.34457 9.52966 5.34457 8.81695 5.34457C8.81695 3.72252 9.67385 3.15842 10.2338 3.15842Z"
          fill="white"/>
</svg>
