<svg width="16" height="16" viewBox="0 0 16 16" fill="none" xmlns="http://www.w3.org/2000/svg">
    <path d="M5.72948 1.77783H11.1598C13.2285 1.77783 14.9093 3.45864 14.9093 5.52733V10.9576C14.9093 11.9521 14.5142 12.9058 13.8111 13.6089C13.1079 14.3121 12.1542 14.7071 11.1598 14.7071H5.72948C3.66079 14.7071 1.97998 13.0263 1.97998 10.9576V5.52733C1.97998 4.5329 2.37502 3.5792 3.07818 2.87603C3.78135 2.17287 4.73505 1.77783 5.72948 1.77783ZM5.60018 3.07076C4.98295 3.07076 4.391 3.31596 3.95455 3.7524C3.5181 4.18885 3.27291 4.7808 3.27291 5.39803V11.0869C3.27291 12.3734 4.31372 13.4142 5.60018 13.4142H11.2891C11.9063 13.4142 12.4983 13.169 12.9347 12.7326C13.3712 12.2961 13.6163 11.7042 13.6163 11.0869V5.39803C13.6163 4.11157 12.5755 3.07076 11.2891 3.07076H5.60018ZM11.8386 4.04046C12.0529 4.04046 12.2584 4.1256 12.41 4.27714C12.5615 4.42868 12.6466 4.63422 12.6466 4.84854C12.6466 5.06286 12.5615 5.26839 12.41 5.41994C12.2584 5.57148 12.0529 5.65662 11.8386 5.65662C11.6243 5.65662 11.4187 5.57148 11.2672 5.41994C11.1156 5.26839 11.0305 5.06286 11.0305 4.84854C11.0305 4.63422 11.1156 4.42868 11.2672 4.27714C11.4187 4.1256 11.6243 4.04046 11.8386 4.04046ZM8.44463 5.01016C9.30189 5.01016 10.124 5.3507 10.7302 5.95688C11.3364 6.56306 11.677 7.38521 11.677 8.24248C11.677 9.09974 11.3364 9.9219 10.7302 10.5281C10.124 11.1343 9.30189 11.4748 8.44463 11.4748C7.58736 11.4748 6.76521 11.1343 6.15903 10.5281C5.55285 9.9219 5.2123 9.09974 5.2123 8.24248C5.2123 7.38521 5.55285 6.56306 6.15903 5.95688C6.76521 5.3507 7.58736 5.01016 8.44463 5.01016ZM8.44463 6.30308C7.93027 6.30308 7.43698 6.50741 7.07327 6.87112C6.70956 7.23483 6.50523 7.72812 6.50523 8.24248C6.50523 8.75684 6.70956 9.25013 7.07327 9.61384C7.43698 9.97754 7.93027 10.1819 8.44463 10.1819C8.95899 10.1819 9.45228 9.97754 9.81599 9.61384C10.1797 9.25013 10.384 8.75684 10.384 8.24248C10.384 7.72812 10.1797 7.23483 9.81599 6.87112C9.45228 6.50741 8.95899 6.30308 8.44463 6.30308Z"
          fill="white"/>
</svg>
