<svg width="20" height="20" viewBox="0 0 20 20" fill="none" xmlns="http://www.w3.org/2000/svg">
<path d="M11.3861 3.2684C12.5478 3.2684 13.4581 3.26853 14.1918 3.32504C14.9336 3.38219 15.549 3.50024 16.1139 3.76547C17.0454 4.20286 17.8192 4.90389 18.3342 5.77621C18.6466 6.30532 18.8122 6.8938 18.9237 7.60922C19.0339 8.31689 19.098 9.20014 19.1808 10.327L19.4007 13.3192C19.5361 15.1627 18.0345 16.7313 16.134 16.7313C15.1622 16.7312 14.2405 16.3108 13.6184 15.5848L13.283 15.1942C12.9619 14.8195 12.8504 14.6916 12.7297 14.5916C12.4551 14.3642 12.1221 14.2127 11.7667 14.1532C11.6103 14.127 11.4381 14.1248 10.9362 14.1248H9.06432C8.56241 14.1248 8.39019 14.127 8.23384 14.1532C7.87836 14.2127 7.54543 14.3642 7.27079 14.5916C7.15009 14.6916 7.03858 14.8195 6.71747 15.1942L6.38206 15.5848C5.75995 16.3108 4.83827 16.7312 3.86651 16.7313C1.96599 16.7313 0.464392 15.1627 0.599798 13.3192L0.819721 10.327C0.90249 9.20014 0.966557 8.31689 1.0768 7.60922C1.18828 6.8938 1.35392 6.30532 1.66627 5.77621C2.1813 4.90389 2.95513 4.20286 3.88659 3.76547C4.45153 3.50024 5.06692 3.38219 5.80866 3.32504C6.54238 3.26853 7.4527 3.2684 8.61443 3.2684H11.3861ZM8.61443 4.56918C7.43147 4.56918 6.58282 4.56943 5.9141 4.62094C5.25382 4.67182 4.82317 4.76966 4.46803 4.93637C3.77901 5.25991 3.20609 5.77838 2.82514 6.42368C2.62879 6.75633 2.49759 7.16749 2.39835 7.80453C2.29789 8.4495 2.23759 9.27241 2.15332 10.4198L1.9334 13.412C1.85326 14.5029 2.7418 15.4315 3.86651 15.4315C4.44153 15.4314 4.98663 15.1824 5.35475 14.7528L5.69016 14.3622C5.98166 14.022 6.1761 13.7913 6.40416 13.6024C6.8613 13.2238 7.41518 12.9711 8.00688 12.8719C8.30225 12.8224 8.60886 12.825 9.06432 12.825H10.9362C11.3916 12.825 11.6983 12.8224 11.9936 12.8719C12.5853 12.9711 13.1392 13.2238 13.5963 13.6024C13.8244 13.7913 14.0189 14.022 14.3103 14.3622L14.6457 14.7528C15.0139 15.1824 15.559 15.4314 16.134 15.4315C17.2587 15.4315 18.1472 14.5029 18.0671 13.412L17.8472 10.4198C17.7629 9.27241 17.7026 8.4495 17.6022 7.80453C17.5029 7.16749 17.3717 6.75633 17.1754 6.42368C16.7944 5.77838 16.2215 5.25991 15.5325 4.93637C15.1773 4.76966 14.7467 4.67182 14.0864 4.62094C13.4177 4.56943 12.569 4.56918 11.3861 4.56918H8.61443ZM5.75845 10.869V9.7811H4.63975C4.27098 9.78085 3.97221 9.4903 3.97195 9.13168C3.97195 8.77285 4.27082 8.48154 4.63975 8.48129H5.75845V7.3934C5.75864 7.03457 6.05822 6.74399 6.42725 6.74399C6.79613 6.74417 7.09487 7.03469 7.09506 7.3934V8.48129H8.21375C8.58282 8.48138 8.88155 8.77275 8.88155 9.13168C8.8813 9.4904 8.58266 9.78101 8.21375 9.7811H7.09506V10.869C7.09489 11.2277 6.79614 11.5182 6.42725 11.5184C6.05821 11.5184 5.75861 11.2278 5.75845 10.869ZM12.6895 9.35043C13.0585 9.35061 13.3573 9.64102 13.3573 9.99985C13.3573 10.3587 13.0585 10.6501 12.6895 10.6502H12.6805C12.3113 10.6502 12.0117 10.3588 12.0117 9.99985C12.0118 9.64091 12.3114 9.35043 12.6805 9.35043H12.6895ZM15.3688 7.61215C15.7379 7.61215 16.0376 7.90356 16.0376 8.26254C16.0376 8.6215 15.7379 8.91293 15.3688 8.91293H15.3607C14.9916 8.91293 14.692 8.6215 14.6919 8.26254C14.6919 7.90356 14.9916 7.61215 15.3607 7.61215H15.3688Z" fill="#5146C1"/>
</svg>
