<svg width="16" height="16" viewBox="0 0 16 16" fill="none" xmlns="http://www.w3.org/2000/svg">
<g clip-path="url(#clip0_14_3339)">
<path d="M6.93343 12.0391V13.6C6.93343 14.3364 7.53038 14.9333 8.26676 14.9333C9.00314 14.9333 9.6001 14.3364 9.6001 13.6V12.0391M8.26676 1.6V2.26667M2.26676 8.26666H1.6001M3.93343 3.93333L3.53337 3.53327M12.6001 3.93333L13.0003 3.53327M14.9334 8.26666H14.2668M12.2668 8.26666C12.2668 10.4758 10.4759 12.2667 8.26676 12.2667C6.05763 12.2667 4.26676 10.4758 4.26676 8.26666C4.26676 6.05753 6.05763 4.26666 8.26676 4.26666C10.4759 4.26666 12.2668 6.05753 12.2668 8.26666Z" stroke="white" stroke-width="1.49996" stroke-linecap="round" stroke-linejoin="round"/>
</g>
<defs>
<clipPath id="clip0_14_3339">
<rect width="16" height="16" fill="white"/>
</clipPath>
</defs>
</svg>
