<svg width="20" height="20" viewBox="0 0 20 20" fill="none" xmlns="http://www.w3.org/2000/svg">
<path d="M10 2C7.58763 2 5.625 3.7944 5.625 6V8.4H4.75C4.28587 8.4 3.84075 8.56857 3.51256 8.86863C3.18437 9.16869 3 9.57565 3 10V16.4C3 16.8243 3.18437 17.2313 3.51256 17.5314C3.84075 17.8314 4.28587 18 4.75 18H15.25C15.7141 18 16.1592 17.8314 16.4874 17.5314C16.8156 17.2313 17 16.8243 17 16.4V10C17 9.57565 16.8156 9.16869 16.4874 8.86863C16.1592 8.56857 15.7141 8.4 15.25 8.4H14.375V6C14.375 3.7944 12.4124 2 10 2ZM7.375 6C7.375 4.6768 8.55275 3.6 10 3.6C11.4473 3.6 12.625 4.6768 12.625 6V8.4H7.375V6ZM10.875 14.5784V16.4H9.125V14.5784C8.81909 14.4182 8.57345 14.1771 8.42048 13.8867C8.2675 13.5963 8.21437 13.2704 8.2681 12.9518C8.32182 12.6333 8.47988 12.3371 8.72142 12.1023C8.96296 11.8676 9.27665 11.7053 9.62113 11.6368C9.87701 11.5849 10.1424 11.5863 10.3976 11.6407C10.6529 11.6951 10.8915 11.8013 11.0958 11.9514C11.3002 12.1014 11.465 12.2915 11.5783 12.5076C11.6915 12.7238 11.7502 12.9604 11.75 13.2C11.7495 13.4798 11.6684 13.7545 11.5147 13.9965C11.3611 14.2385 11.1405 14.4392 10.875 14.5784Z" fill="#4C4C4C" fill-opacity="0.6"/>
</svg>
