<svg width="1920" height="425" viewBox="0 0 1920 425" fill="none" xmlns="http://www.w3.org/2000/svg">
<g filter="url(#filter0_f_8_4601)">
<path fill-rule="evenodd" clip-rule="evenodd" d="M501.221 100.573C551.379 100.573 592.896 115.937 625.54 146.206C658.201 176.493 674.827 215.15 674.827 261.949C674.827 308.742 658.204 347.399 624.957 377.687L624.959 377.69C592.318 407.957 550.802 423.323 501.221 423.323C451.102 423.323 408.988 408.566 376.319 378.273C343.649 347.979 327.032 308.736 327.032 261.949C327.032 215.15 343.657 176.493 376.319 146.206C408.97 115.93 451.073 100.573 501.221 100.573ZM501.221 151.912C466.318 151.912 437.949 162.191 415.862 182.578C393.821 202.923 383.032 229.478 383.032 261.949C383.032 294.42 393.821 320.973 415.862 341.318C437.949 361.706 466.318 371.985 501.221 371.985C535.521 371.984 563.315 361.719 585.416 341.318C607.457 320.973 618.248 294.42 618.248 261.949C618.248 229.478 607.457 202.923 585.416 182.578C563.315 162.178 535.521 151.912 501.221 151.912Z" fill="url(#paint0_linear_8_4601)" fill-opacity="0.5"/>
<path fill-rule="evenodd" clip-rule="evenodd" d="M1402.11 100.57C1452.27 100.57 1493.78 115.934 1526.43 146.203C1559.09 176.489 1575.72 215.147 1575.72 261.946C1575.72 308.739 1559.09 347.395 1525.85 377.683L1525.85 377.685C1493.21 407.952 1451.69 423.32 1402.11 423.32C1351.99 423.32 1309.88 408.562 1277.21 378.269C1244.54 347.975 1227.92 308.732 1227.92 261.946C1227.92 215.147 1244.55 176.489 1277.21 146.203C1309.86 115.927 1351.96 100.57 1402.11 100.57ZM1402.11 151.908C1367.21 151.908 1338.84 162.187 1316.75 182.575C1294.71 202.92 1283.92 229.475 1283.92 261.946C1283.92 294.416 1294.71 320.97 1316.75 341.315C1338.84 361.703 1367.21 371.981 1402.11 371.981C1436.41 371.981 1464.21 361.716 1486.31 341.315C1508.35 320.97 1519.14 294.416 1519.14 261.946C1519.14 229.475 1508.35 202.92 1486.31 182.575C1464.21 162.174 1436.41 151.908 1402.11 151.908Z" fill="url(#paint1_linear_8_4601)" fill-opacity="0.5"/>
<path fill-rule="evenodd" clip-rule="evenodd" d="M190.979 107.174C224.188 107.174 251.99 115.311 271.637 131.264C291.48 147.376 302.221 170.839 302.221 199.609C302.221 223.964 294.388 244.764 279.501 260.501C266.878 273.844 249.575 283.131 228.689 288.11L314.885 415.528H252.051L169.457 292.456H54.0287V415.528H0V107.174H190.979ZM54.0287 243.743H188.932C209.237 243.743 224.316 239.235 234.141 231.758C243.69 224.49 249.013 213.872 249.013 199.609C249.013 185.581 243.712 175.064 234.155 167.832C224.323 160.394 209.235 155.887 188.932 155.887H54.0287V243.743Z" fill="url(#paint2_linear_8_4601)" fill-opacity="0.5"/>
<path fill-rule="evenodd" clip-rule="evenodd" d="M1089.9 108.311C1121.83 108.311 1147.9 115.437 1166.15 129.8C1184.66 144.366 1194.23 165.678 1194.23 191.864C1194.23 219.874 1180.83 241.91 1158.38 255.13C1186.64 268.802 1204 294.619 1204 327.492C1204 354.568 1193.68 376.904 1174.81 392.321C1156.13 407.595 1129.76 415.522 1098.46 415.522H897.602V108.311H1089.9ZM949.847 367.759H1096.82C1114.57 367.759 1128.36 363.176 1137.55 355.753C1146.57 348.465 1151.75 337.991 1151.75 324.641C1151.75 311.525 1146.6 301.152 1137.56 293.899C1128.36 286.515 1114.57 281.932 1096.82 281.932H949.847V367.759ZM949.847 233.758H1086.64C1106.19 233.757 1120.2 229.821 1129.13 223.312C1137.71 217.063 1142.39 207.891 1142.39 195.121C1142.39 182.34 1137.7 173.051 1129.1 166.7C1120.16 160.103 1106.16 156.078 1086.64 156.078H949.847V233.758Z" fill="url(#paint3_linear_8_4601)" fill-opacity="0.5"/>
<path d="M1735.62 221.397L1842.37 108.412H1913.18L1771.85 256.784L1920 414.895H1845.22L1735.56 295.012L1622.8 413.975L1621.93 414.895H1550.5L1699.34 260.186L1557.53 108.412H1631.72L1735.62 221.397Z" fill="url(#paint4_linear_8_4601)" fill-opacity="0.5"/>
<path d="M757.824 413.962H705.406V-3.58203H757.824V413.962Z" fill="url(#paint5_linear_8_4601)" fill-opacity="0.5"/>
<path d="M851.731 413.962H799.311V-3.58203H851.731V413.962Z" fill="url(#paint6_linear_8_4601)" fill-opacity="0.5"/>
</g>
<defs>
<filter id="filter0_f_8_4601" x="-1.48121" y="-5.06324" width="1922.96" height="429.868" filterUnits="userSpaceOnUse" color-interpolation-filters="sRGB">
<feFlood flood-opacity="0" result="BackgroundImageFix"/>
<feBlend mode="normal" in="SourceGraphic" in2="BackgroundImageFix" result="shape"/>
<feGaussianBlur stdDeviation="0.740605" result="effect1_foregroundBlur_8_4601"/>
</filter>
<linearGradient id="paint0_linear_8_4601" x1="157.442" y1="103.907" x2="157.442" y2="401.679" gradientUnits="userSpaceOnUse">
<stop stop-color="#581FD2"/>
<stop offset="1" stop-color="#2D22FD" stop-opacity="0.2"/>
</linearGradient>
<linearGradient id="paint1_linear_8_4601" x1="157.442" y1="103.907" x2="157.442" y2="401.679" gradientUnits="userSpaceOnUse">
<stop stop-color="#581FD2"/>
<stop offset="1" stop-color="#2D22FD" stop-opacity="0.2"/>
</linearGradient>
<linearGradient id="paint2_linear_8_4601" x1="157.442" y1="103.907" x2="157.442" y2="401.679" gradientUnits="userSpaceOnUse">
<stop stop-color="#581FD2"/>
<stop offset="1" stop-color="#2D22FD" stop-opacity="0.2"/>
</linearGradient>
<linearGradient id="paint3_linear_8_4601" x1="157.442" y1="103.907" x2="157.442" y2="401.679" gradientUnits="userSpaceOnUse">
<stop stop-color="#581FD2"/>
<stop offset="1" stop-color="#2D22FD" stop-opacity="0.2"/>
</linearGradient>
<linearGradient id="paint4_linear_8_4601" x1="157.442" y1="103.907" x2="157.442" y2="401.679" gradientUnits="userSpaceOnUse">
<stop stop-color="#581FD2"/>
<stop offset="1" stop-color="#2D22FD" stop-opacity="0.2"/>
</linearGradient>
<linearGradient id="paint5_linear_8_4601" x1="157.442" y1="103.907" x2="157.442" y2="401.679" gradientUnits="userSpaceOnUse">
<stop stop-color="#581FD2"/>
<stop offset="1" stop-color="#2D22FD" stop-opacity="0.2"/>
</linearGradient>
<linearGradient id="paint6_linear_8_4601" x1="157.442" y1="103.907" x2="157.442" y2="401.679" gradientUnits="userSpaceOnUse">
<stop stop-color="#581FD2"/>
<stop offset="1" stop-color="#2D22FD" stop-opacity="0.2"/>
</linearGradient>
</defs>
</svg>
