<svg width="81" height="23" viewBox="0 0 81 23" fill="none" xmlns="http://www.w3.org/2000/svg">
<path d="M33.5098 4.30096L35.7072 4.30096L35.7072 21.4502L33.5098 21.4502L33.5098 4.30096Z" fill="#27272B"/>
<path d="M43.0146 20.1316L43.0146 22.282L33.5124 22.282L33.5124 20.1316L43.0146 20.1316Z" fill="#27272B"/>
<path d="M29.5713 0L31.7687 1.00782e-08L31.7687 17.1493L29.5713 17.1493L29.5713 0Z" fill="#27272B"/>
<path d="M72.7588 10.3152L77.2334 5.67456H80.2021L74.2773 11.7683L80.4883 18.2625H77.3525L72.7559 13.3386L68.0293 18.2244L67.9922 18.2625H64.998L71.2383 11.908L65.293 5.67456H68.4033L72.7588 10.3152Z" fill="#27272B"/>
<path d="M58.7793 5.35278C60.8819 5.35278 62.6228 5.9837 63.9912 7.22681C65.3604 8.4707 66.0576 10.0586 66.0576 11.9807C66.0576 13.9026 65.3605 15.4907 63.9668 16.7346C62.5985 17.9776 60.8577 18.6086 58.7793 18.6086C56.6784 18.6086 54.9134 18.0022 53.5439 16.7581C52.1744 15.5138 51.4775 13.9023 51.4775 11.9807C51.4776 10.0586 52.1747 8.4707 53.5439 7.22681C54.9126 5.98355 56.6774 5.35288 58.7793 5.35278ZM58.7793 7.46118C57.3163 7.46127 56.127 7.88368 55.2012 8.72095C54.2773 9.55653 53.8252 10.6472 53.8252 11.9807C53.8252 13.3143 54.2773 14.4049 55.2012 15.2405C56.127 16.0778 57.3163 16.5002 58.7793 16.5002C60.2172 16.5002 61.383 16.0784 62.3096 15.2405C63.2334 14.4049 63.6855 13.3143 63.6855 11.9807C63.6855 10.6472 63.2334 9.55653 62.3096 8.72095C61.383 7.88304 60.2172 7.46118 58.7793 7.46118Z" fill="#27272B"/>
<path d="M45.6914 5.67084C47.0297 5.67086 48.1226 5.96371 48.8877 6.55365C49.6635 7.15189 50.0645 8.02702 50.0645 9.10248C50.0644 10.2528 49.5033 11.1582 48.5625 11.7011C49.7469 12.2627 50.4746 13.3228 50.4746 14.6728C50.4746 15.7847 50.0415 16.7017 49.251 17.3349C48.4676 17.9623 47.3621 18.288 46.0498 18.288H37.6299V5.67084H45.6914ZM39.8203 16.3261H45.9814C46.7251 16.3261 47.3031 16.1386 47.6885 15.8339C48.0669 15.5346 48.2842 15.1039 48.2842 14.5556C48.2842 14.0169 48.0681 13.5908 47.6895 13.2929C47.3038 12.9896 46.7252 12.8017 45.9814 12.8017H39.8203V16.3261ZM39.8203 10.8232H45.5547C46.3742 10.8232 46.9614 10.6608 47.3359 10.3935C47.6953 10.1369 47.8915 9.76057 47.8916 9.23627C47.8916 8.71133 47.6947 8.32915 47.334 8.0683C46.9593 7.79753 46.3724 7.63276 45.5547 7.63275H39.8203V10.8232Z" fill="#27272B"/>
<path d="M21.0156 5.35278C23.1182 5.35278 24.8591 5.9837 26.2275 7.22681C27.5967 8.4707 28.2939 10.0586 28.2939 11.9807C28.2939 13.9026 27.5969 15.4907 26.2031 16.7346C24.8348 17.9776 23.094 18.6086 21.0156 18.6086C18.9147 18.6086 17.1497 18.0022 15.7803 16.7581C14.4107 15.5138 13.7139 13.9023 13.7139 11.9807C13.7139 10.0586 14.4111 8.4707 15.7803 7.22681C17.1489 5.98355 18.9137 5.35288 21.0156 5.35278ZM21.0156 7.46118C19.5526 7.46127 18.3633 7.88368 17.4375 8.72095C16.5136 9.55653 16.0615 10.6472 16.0615 11.9807C16.0615 13.3143 16.5137 14.4049 17.4375 15.2405C18.3633 16.0778 19.5526 16.5002 21.0156 16.5002C22.4535 16.5002 23.6194 16.0784 24.5459 15.2405C25.4697 14.4049 25.9219 13.3143 25.9219 11.9807C25.9219 10.6472 25.4698 9.55653 24.5459 8.72095C23.6194 7.88304 22.4535 7.46118 21.0156 7.46118Z" fill="#27272B"/>
<path d="M8.00586 5.62415C9.39803 5.62415 10.564 5.95818 11.3877 6.6134C12.2195 7.27515 12.6699 8.23946 12.6699 9.42102C12.6698 10.4211 12.3407 11.2748 11.7168 11.921C11.1876 12.469 10.4625 12.8513 9.58691 13.0558L13.2002 18.2892H10.5664L7.10352 13.2335H2.26465V18.2892H0V5.62415H8.00586ZM2.26465 11.2335H7.91992C8.77101 11.2335 9.40359 11.0483 9.81543 10.7413C10.2157 10.4429 10.4384 10.0066 10.4385 9.42102C10.4385 8.84497 10.217 8.41237 9.81641 8.11536C9.40427 7.80986 8.77103 7.62512 7.91992 7.62512H2.26465V11.2335Z" fill="#27272B"/>
</svg>
