<svg width="237" height="53" viewBox="0 0 237 53" fill="none" xmlns="http://www.w3.org/2000/svg">
<path d="M103.813 1.31848L103.813 50.2198L99.979 50.2198L99.979 1.31848L103.813 1.31848Z" fill="#27272B" stroke="#2E2C37" stroke-width="2.63648"/>
<path d="M92.2222 1.31848L92.2222 50.2198L88.3882 50.2198L88.3882 1.31848L92.2222 1.31848Z" fill="#27272B" stroke="#2E2C37" stroke-width="2.63648"/>
<path d="M214.232 27.7694L227.408 13.8241H236.148L218.703 32.1376L236.99 51.6542H227.759L214.224 36.8563L200.306 51.5399L200.198 51.6542H191.381L209.754 32.5575L192.249 13.8241H201.407L214.232 27.7694Z" fill="#27272B"/>
<path d="M173.066 12.856C179.257 12.856 184.381 14.7526 188.411 18.4888C192.442 22.2271 194.495 26.9984 194.495 32.7749C194.495 38.5506 192.443 43.3226 188.339 47.061C184.31 50.7969 179.186 52.6938 173.066 52.6938C166.879 52.6938 161.681 50.8715 157.649 47.1323C153.616 43.3931 151.565 38.5498 151.565 32.7749C151.565 26.9984 153.617 22.2271 157.649 18.4888C161.679 14.7517 166.876 12.856 173.066 12.856ZM173.066 19.1929C168.758 19.1929 165.256 20.4616 162.53 22.978C159.809 25.4893 158.477 28.7669 158.477 32.7749C158.477 36.7828 159.809 40.0605 162.53 42.5718C165.256 45.0881 168.758 46.3569 173.066 46.3569C177.3 46.3569 180.731 45.0899 183.458 42.5718C186.179 40.0606 187.51 36.7828 187.51 32.7749C187.51 28.767 186.179 25.4893 183.458 22.978C180.731 20.4599 177.299 19.1929 173.066 19.1929Z" fill="#27272B"/>
<path d="M134.529 13.8118C138.469 13.8118 141.688 14.6914 143.94 16.4641C146.225 18.262 147.406 20.893 147.406 24.1252C147.406 27.5824 145.752 30.3021 142.981 31.9338C146.47 33.6214 148.612 36.808 148.612 40.8655C148.612 44.2075 147.338 46.9644 145.01 48.8674C142.703 50.7528 139.449 51.7316 135.585 51.7317H110.793V13.8118H134.529ZM117.242 45.8362H135.384C137.574 45.8361 139.276 45.2699 140.41 44.3538C141.524 43.4541 142.163 42.1616 142.163 40.5139C142.163 38.895 141.527 37.6142 140.412 36.719C139.277 35.8075 137.574 35.2425 135.384 35.2424H117.242V45.8362ZM117.242 29.2961H134.127C136.54 29.2961 138.268 28.8095 139.371 28.0061C140.43 27.2348 141.008 26.1029 141.008 24.5266C141.008 22.9494 140.429 21.8027 139.367 21.0188C138.264 20.2045 136.536 19.7073 134.127 19.7073H117.242V29.2961Z" fill="#27272B"/>
<path d="M61.8672 12.8562C68.0582 12.8563 73.1826 14.7528 77.2119 18.489C81.2433 22.2273 83.2959 26.9987 83.2959 32.7751C83.2959 38.5509 81.2433 43.3228 77.1396 47.0613L76.7588 47.406C72.7896 50.9136 67.7957 52.694 61.8672 52.6941C55.6809 52.6941 50.4826 50.8725 46.4502 47.1335C42.4176 43.3943 40.3662 38.5502 40.3662 32.7751C40.3662 26.9987 42.4187 22.2273 46.4502 18.489C50.4804 14.752 55.6773 12.8562 61.8672 12.8562ZM61.8672 19.1931C57.5591 19.1931 54.0573 20.4619 51.3311 22.9783C48.6106 25.4895 47.2784 28.7672 47.2783 32.7751C47.2783 36.7831 48.6105 40.0608 51.3311 42.572C54.0573 45.0884 57.5591 46.3572 61.8672 46.3572C66.1007 46.3571 69.5318 45.0901 72.2598 42.572C74.9801 40.0608 76.3115 36.783 76.3115 32.7751C76.3115 28.7673 74.9801 25.4895 72.2598 22.9783C69.5318 20.4602 66.1007 19.1932 61.8672 19.1931Z" fill="#27272B"/>
<path d="M23.5732 13.6709C27.6723 13.6709 31.1042 14.6754 33.5293 16.6445C35.9783 18.6332 37.3036 21.5292 37.3037 25.0801C37.3037 28.0863 36.3366 30.6543 34.499 32.5967C32.9409 34.2434 30.8054 35.3894 28.2275 36.0039L38.8672 51.7314H31.1113L20.917 36.541H6.66895V51.7314H0V13.6709H23.5732ZM6.66895 30.5283H23.3203C25.8264 30.5283 27.6878 29.9716 28.9004 29.0488C30.0792 28.1517 30.7363 26.8407 30.7363 25.0801C30.7362 23.3488 30.082 22.0508 28.9023 21.1582C27.6888 20.2401 25.8263 19.6836 23.3203 19.6836H6.66895V30.5283Z" fill="#27272B"/>
</svg>
