<svg width="16" height="16" viewBox="0 0 16 16" fill="none" xmlns="http://www.w3.org/2000/svg">
<g clip-path="url(#clip0_14_5520)">
<mask id="mask0_14_5520" style="mask-type:luminance" maskUnits="userSpaceOnUse" x="2" y="0" width="12" height="17">
<path d="M2.40002 0H13.2818V16.1432H2.40002V0Z" fill="white"/>
</mask>
<g mask="url(#mask0_14_5520)">
<path fill-rule="evenodd" clip-rule="evenodd" d="M11.1104 9.78381C10.8642 9.91386 10.5862 9.98337 10.297 9.98337C10.0466 9.98337 9.80544 9.93222 9.5848 9.8337C9.48663 9.87652 9.3868 9.91597 9.28564 9.95194C9.04816 10.5725 8.42211 11.0074 7.70431 11.0074C7.70198 11.0074 7.69965 11.0072 7.69721 11.0072L9.00821 14.7332C9.03983 14.8229 9.11913 14.8899 9.21641 14.9089C9.23505 14.9126 9.25379 14.9144 9.27243 14.9144C9.35096 14.9144 9.42706 14.8825 9.48041 14.8254C9.91723 14.3579 10.3546 13.8723 10.5515 13.6526L12.1412 13.9724C12.2393 13.9922 12.3404 13.9603 12.4069 13.8892C12.4733 13.8179 12.4947 13.7183 12.4629 13.6279L11.1104 9.78381ZM7.69097 3.72004C6.42656 3.72004 5.39785 4.70096 5.39785 5.90664C5.39785 7.11232 6.42656 8.09324 7.69097 8.09324C8.95537 8.09324 9.98408 7.11232 9.98408 5.90664C9.98408 4.70096 8.95537 3.72004 7.69097 3.72004ZM7.69097 8.62463C6.11929 8.62463 4.84055 7.40534 4.84055 5.90664C4.84055 4.40793 6.11926 3.18864 7.69097 3.18864C9.26267 3.18864 10.5414 4.40793 10.5414 5.90664C10.5414 7.40534 9.26267 8.62463 7.69097 8.62463ZM11.5012 4.84223C11.4211 4.58128 11.3117 4.32982 11.1744 4.09072C11.3267 3.9036 11.4092 3.67513 11.4092 3.43444C11.4092 3.14776 11.2921 2.87826 11.0795 2.67556C10.675 2.28995 10.0365 2.25987 9.59552 2.58516C9.34483 2.45416 9.08106 2.34985 8.80741 2.27359C8.73675 1.74622 8.26299 1.33728 7.69109 1.33728C7.11919 1.33728 6.64543 1.74622 6.57478 2.27359C6.30113 2.34985 6.03735 2.45417 5.78667 2.58516C5.34553 2.25977 4.70715 2.28982 4.30262 2.67566C3.8982 3.06138 3.8666 3.67008 4.20789 4.09061C4.07046 4.32972 3.96109 4.58128 3.881 4.84223C3.32792 4.90963 2.89911 5.36128 2.89911 5.90669C2.89911 6.45199 3.32795 6.90375 3.881 6.97115C3.96108 7.2321 4.07045 7.48364 4.20789 7.72266C3.86649 8.14319 3.89809 8.75199 4.30262 9.13771C4.51515 9.34033 4.7978 9.45204 5.09837 9.45204C5.35083 9.45204 5.59065 9.37335 5.78675 9.22812C6.03733 9.35912 6.30109 9.46343 6.57475 9.5398C6.64541 10.0672 7.11916 10.4761 7.69106 10.4761C8.26297 10.4761 8.73673 10.0672 8.80738 9.5398C9.08103 9.46343 9.34481 9.35912 9.59538 9.22812C9.7916 9.37335 10.0313 9.45204 10.2838 9.45204C10.5844 9.45204 10.8669 9.34034 11.0794 9.13771C11.2921 8.93499 11.4092 8.66551 11.4092 8.37891C11.4092 8.13822 11.3267 7.90976 11.1744 7.72253C11.3117 7.48352 11.4211 7.23196 11.5012 6.97112C12.0542 6.90372 12.483 6.45196 12.483 5.90666C12.483 5.36125 12.0542 4.90963 11.5012 4.84223ZM6.12318 9.952C6.02213 9.91604 5.9223 9.87659 5.82402 9.83377C5.60351 9.93228 5.36224 9.98344 5.1119 9.98344C4.81374 9.98344 4.52756 9.9096 4.27589 9.77164L2.91908 13.628C2.88725 13.7184 2.90866 13.818 2.9751 13.8893C3.04154 13.9604 3.14293 13.9923 3.24076 13.9725L4.8305 13.6527C5.02739 13.8724 5.46476 14.358 5.90158 14.8255C5.95504 14.8827 6.03103 14.9145 6.10967 14.9145C6.12819 14.9145 6.14694 14.9127 6.16558 14.909C6.26286 14.89 6.34217 14.8231 6.37378 14.7333L7.68478 11.0071C6.97533 10.9992 6.35855 10.5669 6.12318 9.952Z" fill="white"/>
</g>
</g>
<defs>
<clipPath id="clip0_14_5520">
<rect width="16" height="16" fill="white"/>
</clipPath>
</defs>
</svg>
