<svg width="12" height="12" viewBox="0 0 12 12" fill="none" xmlns="http://www.w3.org/2000/svg">
    <g clip-path="url(#clip0_1_4021)">
        <path d="M2.71043 4.54792H5.30471M2.71043 6.36391H6.86127M2.71043 9.47705V10.6888C2.71043 10.9653 2.71043 11.1035 2.76711 11.1745C2.81639 11.2363 2.89113 11.2722 2.97014 11.2721C3.06098 11.272 3.16893 11.1857 3.38482 11.013L4.62252 10.0228C4.87536 9.82052 5.00178 9.71938 5.14256 9.64746C5.26745 9.58366 5.4004 9.53702 5.53779 9.50883C5.69264 9.47705 5.85454 9.47705 6.17833 9.47705H7.4839C8.35566 9.47705 8.79154 9.47705 9.12451 9.30739C9.41739 9.15816 9.65552 8.92003 9.80475 8.62715C9.97441 8.29418 9.97441 7.8583 9.97441 6.98654V4.18472C9.97441 3.31296 9.97441 2.87708 9.80475 2.54411C9.65552 2.25123 9.41739 2.0131 9.12451 1.86387C8.79154 1.69421 8.35566 1.69421 7.4839 1.69421H3.12552C2.25376 1.69421 1.81788 1.69421 1.48491 1.86387C1.19202 2.0131 0.953899 2.25123 0.804665 2.54411C0.63501 2.87708 0.63501 3.31296 0.63501 4.18472V7.40162C0.63501 7.88414 0.63501 8.12541 0.688048 8.32335C0.83198 8.86051 1.25155 9.28008 1.78871 9.42401C1.98665 9.47705 2.22791 9.47705 2.71043 9.47705Z"
              stroke="currentColor" stroke-width="0.847118" stroke-linecap="round"
              stroke-linejoin="round"/>
    </g>
    <defs>
        <clipPath id="clip0_1_4021">
            <rect width="11.8597" height="11.8597" fill="white"/>
        </clipPath>
    </defs>
</svg>
