<svg width="17" height="17" viewBox="0 0 17 17" fill="none" xmlns="http://www.w3.org/2000/svg">
<path d="M6.83362 8.30038L14.7745 3.71573M6.85728 8.51645L7.34477 12.9673C7.38772 13.3594 7.40919 13.5554 7.49479 13.6339C7.569 13.702 7.67172 13.7296 7.77003 13.7079C7.88344 13.6828 8.00025 13.5239 8.23386 13.2061L14.8637 4.18661C15.0746 3.89971 15.18 3.75626 15.1732 3.64473C15.1674 3.54787 15.1163 3.45941 15.0353 3.40589C14.9421 3.34426 14.7652 3.36385 14.4113 3.40304L3.28527 4.63488C2.89322 4.67829 2.6972 4.69999 2.6188 4.78568C2.55085 4.85997 2.52338 4.96272 2.5452 5.06101C2.57038 5.17439 2.72943 5.29101 3.04752 5.52425L6.65833 8.17185C6.7229 8.2192 6.75519 8.24287 6.77973 8.27265C6.80149 8.29905 6.81871 8.32887 6.83069 8.36091C6.84421 8.39706 6.84857 8.43686 6.85728 8.51645Z" stroke="#675DD6" stroke-width="0.96329" stroke-linecap="round" stroke-linejoin="round"/>
</svg>
