<svg width="20" height="20" viewBox="0 0 20 20" fill="none" xmlns="http://www.w3.org/2000/svg">
    <path d="M8.25649 7.6917C8.43086 7.19601 8.77503 6.77804 9.22805 6.5118C9.68106 6.24556 10.2137 6.14823 10.7316 6.23707C11.2495 6.3259 11.7192 6.59515 12.0576 6.99714C12.396 7.39913 12.5812 7.90791 12.5804 8.43337C12.5804 9.91671 10.3554 10.6584 10.3554 10.6584M10.4148 13.6251H10.4222M17.8315 9.91671C17.8315 14.0128 14.5109 17.3334 10.4148 17.3334C6.31862 17.3334 2.99805 14.0128 2.99805 9.91671C2.99805 5.82057 6.31862 2.5 10.4148 2.5C14.5109 2.5 17.8315 5.82057 17.8315 9.91671Z"
          stroke="currentColor" stroke-width="1.3" stroke-linecap="round" stroke-linejoin="round"/>
</svg>
