<svg width="11" height="11" viewBox="0 0 11 11" fill="none" xmlns="http://www.w3.org/2000/svg">
<path d="M3.06928 5.4946L3.34838 6.05279C3.44283 6.2417 3.49006 6.33616 3.55315 6.41801C3.60914 6.49064 3.67425 6.55575 3.74689 6.61174C3.82874 6.67483 3.92319 6.72206 4.11211 6.81652L4.6703 7.09561L4.11211 7.37471C3.92319 7.46917 3.82874 7.51639 3.74689 7.57949C3.67425 7.63548 3.60914 7.70059 3.55315 7.77322C3.49006 7.85507 3.44283 7.94953 3.34838 8.13844L3.06928 8.69663L2.79018 8.13844C2.69573 7.94953 2.6485 7.85507 2.58541 7.77322C2.52942 7.70059 2.46431 7.63548 2.39167 7.57949C2.30982 7.5164 2.21537 7.46917 2.02645 7.37471L1.46826 7.09561L2.02645 6.81652C2.21537 6.72206 2.30982 6.67483 2.39167 6.61174C2.46431 6.55575 2.52942 6.49064 2.58541 6.41801C2.6485 6.33616 2.69573 6.2417 2.79018 6.05279L3.06928 5.4946Z" stroke="white" stroke-width="0.767881" stroke-linecap="round" stroke-linejoin="round"/>
<path d="M6.09343 1.58099L6.51276 2.67126C6.61309 2.93213 6.66326 3.06256 6.74128 3.17228C6.81042 3.26952 6.89538 3.35448 6.99262 3.42362C7.10233 3.50163 7.23277 3.5518 7.49364 3.65213L8.5839 4.07147L7.49364 4.4908C7.23277 4.59113 7.10233 4.6413 6.99262 4.71932C6.89538 4.78846 6.81042 4.87342 6.74128 4.97066C6.66326 5.08037 6.61309 5.21081 6.51276 5.47168L6.09343 6.56194L5.67409 5.47168C5.57376 5.21081 5.52359 5.08037 5.44558 4.97066C5.37644 4.87342 5.29148 4.78846 5.19424 4.71932C5.08452 4.6413 4.95409 4.59113 4.69322 4.4908L3.60295 4.07147L4.69322 3.65213C4.95409 3.5518 5.08452 3.50163 5.19424 3.42362C5.29148 3.35448 5.37644 3.26952 5.44558 3.17228C5.52359 3.06256 5.57376 2.93213 5.67409 2.67126L6.09343 1.58099Z" stroke="white" stroke-width="0.767881" stroke-linecap="round" stroke-linejoin="round"/>
</svg>
