<svg width="102" height="35" viewBox="0 0 102 35" fill="none" xmlns="http://www.w3.org/2000/svg">
<g clip-path="url(#clip0_32_3597)" filter="url(#filter0_d_32_3597)">
<rect width="102" height="35" fill="url(#paint0_radial_32_3597)"/>
<g opacity="0.06">
<path d="M31.6577 -7.19478C35.1429 -7.19478 37.8739 -7.19441 40.075 -7.02486C42.3002 -6.85342 44.1464 -6.49926 45.8412 -5.70357C48.6356 -4.39141 50.9571 -2.28831 52.5022 0.328659C53.4393 1.91597 53.9362 3.68141 54.2706 5.82768C54.6013 7.95068 54.7935 10.6004 55.0418 13.981L55.7016 22.9576C56.1078 28.488 51.603 33.1939 45.9015 33.1939C42.9862 33.1936 40.2212 31.9324 38.3548 29.7544L37.3486 28.5826C36.3853 27.4585 36.0507 27.0749 35.6886 26.7749C34.8647 26.0927 33.8659 25.6382 32.7995 25.4595C32.3304 25.3809 31.8138 25.3746 30.308 25.3746H24.6925C23.1867 25.3746 22.6701 25.3809 22.201 25.4595C21.1346 25.6382 20.1358 26.0927 19.3119 26.7749C18.9498 27.075 18.6153 27.4584 17.6519 28.5826L16.6457 29.7544C14.7794 31.9324 12.0143 33.1936 9.09904 33.1939C3.39748 33.1939 -1.10731 28.488 -0.701093 22.9576L-0.041324 13.981C0.206982 10.6004 0.399182 7.95068 0.729913 5.82768C1.06434 3.68141 1.56126 1.91597 2.49833 0.328659C4.04341 -2.28831 6.36491 -4.39141 9.15929 -5.70357C10.8541 -6.49926 12.7003 -6.85342 14.9255 -7.02486C17.1266 -7.19441 19.8576 -7.19478 23.3428 -7.19478H31.6577ZM23.3428 -3.29243C19.7939 -3.29243 17.248 -3.29169 15.2418 -3.13716C13.261 -2.98452 11.969 -2.69099 10.9036 -2.19087C8.83655 -1.22025 7.11777 0.335167 5.97492 2.27104C5.3859 3.26902 4.99228 4.50249 4.69455 6.41362C4.39318 8.34852 4.21229 10.8172 3.95947 14.2593L3.2997 23.2359C3.0593 26.5088 5.7249 29.2945 9.09904 29.2945C10.8241 29.2941 12.4594 28.5471 13.5638 27.2583L14.57 26.0865C15.4445 25.066 16.0278 24.374 16.712 23.8072C18.0834 22.6715 19.745 21.9133 21.5202 21.6158C22.4062 21.4673 23.3261 21.4751 24.6925 21.4751H30.308C31.6744 21.4751 32.5943 21.4673 33.4804 21.6158C35.2555 21.9133 36.9171 22.6715 38.2885 23.8072C38.9727 24.374 39.5561 25.0661 40.4305 26.0865L41.4367 27.2583C42.5411 28.5471 44.1764 29.2941 45.9015 29.2945C49.2756 29.2945 51.9412 26.5088 51.7008 23.2359L51.0411 14.2593C50.7882 10.8172 50.6073 8.34852 50.306 6.41362C50.0083 4.50249 49.6146 3.26902 49.0256 2.27104C47.8828 0.335166 46.164 -1.22025 44.0969 -2.19087C43.0315 -2.69099 41.7396 -2.98453 39.7587 -3.13716C37.7525 -3.29169 35.2066 -3.29243 31.6577 -3.29243H23.3428ZM14.7749 15.607V12.3433H11.4188C10.3125 12.3426 9.41614 11.4709 9.41536 10.3951C9.41536 9.31858 10.312 8.44465 11.4188 8.44389H14.7749V5.18022C14.7754 4.10373 15.6742 3.23198 16.7813 3.23198C17.8879 3.23253 18.7841 4.10408 18.7847 5.18022V8.44389H22.1408C23.248 8.44417 24.1442 9.31828 24.1442 10.3951C24.1434 11.4712 23.2475 12.343 22.1408 12.3433H18.7847V15.607C18.7842 16.6832 17.8879 17.5547 16.7813 17.5552C15.6741 17.5552 14.7753 16.6835 14.7749 15.607ZM35.5681 11.0513C36.675 11.0519 37.5714 11.9231 37.5715 12.9996C37.5715 14.0762 36.6751 14.9502 35.5681 14.9507H35.541C34.4336 14.9507 33.5346 14.0765 33.5346 12.9996C33.5348 11.9227 34.4337 11.0513 35.541 11.0513H35.5681ZM43.6059 5.83647C44.7133 5.83647 45.6123 6.71069 45.6123 7.78764C45.6122 8.86451 44.7132 9.73882 43.6059 9.73882H43.5817C42.4744 9.73882 41.5754 8.86451 41.5753 7.78764C41.5753 6.71069 42.4743 5.83647 43.5817 5.83647H43.6059Z" fill="#5146C1"/>
</g>
</g>
<defs>
<filter id="filter0_d_32_3597" x="-2" y="-1" width="106" height="39" filterUnits="userSpaceOnUse" color-interpolation-filters="sRGB">
<feFlood flood-opacity="0" result="BackgroundImageFix"/>
<feColorMatrix in="SourceAlpha" type="matrix" values="0 0 0 0 0 0 0 0 0 0 0 0 0 0 0 0 0 0 127 0" result="hardAlpha"/>
<feOffset dy="1"/>
<feGaussianBlur stdDeviation="1"/>
<feComposite in2="hardAlpha" operator="out"/>
<feColorMatrix type="matrix" values="0 0 0 0 0 0 0 0 0 0 0 0 0 0 0 0 0 0 0.2 0"/>
<feBlend mode="normal" in2="BackgroundImageFix" result="effect1_dropShadow_32_3597"/>
<feBlend mode="normal" in="SourceGraphic" in2="effect1_dropShadow_32_3597" result="shape"/>
</filter>
<radialGradient id="paint0_radial_32_3597" cx="0" cy="0" r="1" gradientUnits="userSpaceOnUse" gradientTransform="translate(53.1683 35) rotate(-90) scale(39.0088 116.148)">
<stop offset="0.0813115" stop-color="white"/>
<stop offset="0.895247" stop-color="#E6E6F1"/>
</radialGradient>
<clipPath id="clip0_32_3597">
<rect width="102" height="35" fill="white"/>
</clipPath>
</defs>
</svg>
