<svg width="102" height="35" viewBox="0 0 102 35" fill="none" xmlns="http://www.w3.org/2000/svg">
<g clip-path="url(#clip0_32_3589)" filter="url(#filter0_d_32_3589)">
<rect width="102" height="35" fill="url(#paint0_radial_32_3589)"/>
<g opacity="0.05">
<path d="M28.364 -14.9394C30.7535 -15.0655 32.7418 -13.9628 34.2334 -12.2763C37.0925 -9.0433 38.4507 -3.37454 38.4507 2.23146C38.5447 5.90696 39.2119 8.43242 39.9682 10.2002C40.5367 11.529 41.1754 12.4779 41.749 13.2295L42.2959 13.9209L42.3216 13.9531V13.9561L42.3359 13.9737C42.9357 14.7521 42.8692 15.8683 42.1813 16.5664C39.4907 19.2948 36.8276 21.2046 34.2334 22.4492C34.3434 23.1662 34.4655 23.8792 34.6113 24.585C34.8303 25.6268 35.1681 25.8665 35.4158 25.9619L36.7873 26.4365C37.263 26.5875 37.7606 26.7351 38.2847 26.8906L39.0835 27.1279L39.0921 27.1309C40.3882 27.5215 41.8502 27.9939 43.1863 28.6924C44.5427 29.4014 45.9312 30.4265 46.9512 32.0235C47.9962 33.66 48.4937 35.6393 48.4601 37.9238V37.9268C48.4384 39.2524 47.4929 40.9497 45.6428 40.9502H9.35599C7.50585 40.9497 6.56037 39.2524 6.5387 37.9268V37.9238C6.50511 35.6386 7.00186 33.6618 8.04469 32.0264V32.0235C9.06571 30.4259 10.4529 29.4055 11.8097 28.6953V28.6924C13.1446 27.9949 14.6083 27.5246 15.9039 27.1338L16.7227 26.8877C17.7671 26.5775 18.7022 26.2997 19.5829 25.9619L19.7805 25.8535C19.99 25.6975 20.2201 25.3676 20.3846 24.585C20.4786 24.1285 20.5627 23.6692 20.6423 23.208C17.3793 21.9787 14.7108 19.8883 12.786 17.8408C12.4294 17.4613 12.2391 16.949 12.2563 16.4229C12.2738 15.897 12.4971 15.4 12.8776 15.0459C15.1252 12.9543 14.8495 10.509 14.5353 8.26076L14.4351 7.49611L14.4322 7.48732C13.564 -0.0571508 14.3148 -4.87238 16.0413 -7.86717C17.6533 -10.6633 19.9703 -11.6403 21.945 -11.831C24.0779 -13.7391 26.2274 -14.8265 28.364 -14.9394ZM28.5616 -11.0429C27.4852 -10.9862 25.9638 -10.3691 24.015 -8.49705C23.6617 -8.15765 23.1941 -7.96971 22.7094 -7.96971C21.63 -7.96953 20.3161 -7.61032 19.3224 -5.8867C18.2295 -3.99093 17.3851 -0.217522 18.2173 7.0215L18.306 7.70119V7.70705C18.5702 9.59669 19.1034 13.1335 16.8086 16.3672C18.5621 17.9223 20.7539 19.3035 23.262 19.9707C24.1969 20.2194 24.8024 21.1448 24.6707 22.124C24.5224 23.2252 24.3351 24.3186 24.1124 25.3994V25.4053C23.748 27.1387 22.8609 28.8705 20.9229 29.6153H20.92C19.8775 30.0149 18.7976 30.3353 17.7792 30.6377H17.7706C17.5105 30.714 17.2491 30.7924 16.9861 30.8721H16.9833C16.0221 31.162 15.1272 31.4546 14.3206 31.8008L13.5447 32.167C12.568 32.6783 11.7843 33.3011 11.237 34.1563C10.7786 34.8751 10.4593 35.8085 10.3752 37.0508H44.6235C44.5397 35.8081 44.2201 34.8772 43.7618 34.1592C43.2153 33.3031 42.43 32.6771 41.4541 32.167C40.462 31.6481 39.3009 31.2579 38.0213 30.8721L37.2225 30.6377C36.2025 30.3351 35.1216 30.0151 34.0788 29.6153H34.0759C32.1379 28.8705 31.2508 27.1387 30.8864 25.4053V25.3994C30.6199 24.1109 30.4074 22.8054 30.2508 21.4883C30.1452 20.5994 30.6446 19.7514 31.4619 19.4317C33.5641 18.6116 35.8459 17.1982 38.2703 14.9727C37.6931 14.15 37.0489 13.1054 36.4752 11.7647C35.4977 9.47972 34.7402 6.43354 34.6399 2.27834C34.6396 2.26271 34.6371 2.2471 34.6371 2.23146C34.6371 -2.98086 33.337 -7.47857 31.4075 -9.66014C30.5048 -10.6808 29.5638 -11.0956 28.5616 -11.0429Z" fill="#5146C1"/>
</g>
</g>
<defs>
<filter id="filter0_d_32_3589" x="-2" y="-1" width="106" height="39" filterUnits="userSpaceOnUse" color-interpolation-filters="sRGB">
<feFlood flood-opacity="0" result="BackgroundImageFix"/>
<feColorMatrix in="SourceAlpha" type="matrix" values="0 0 0 0 0 0 0 0 0 0 0 0 0 0 0 0 0 0 127 0" result="hardAlpha"/>
<feOffset dy="1"/>
<feGaussianBlur stdDeviation="1"/>
<feComposite in2="hardAlpha" operator="out"/>
<feColorMatrix type="matrix" values="0 0 0 0 0 0 0 0 0 0.0298853 0 0 0 0 0.089656 0 0 0 0.25 0"/>
<feBlend mode="normal" in2="BackgroundImageFix" result="effect1_dropShadow_32_3589"/>
<feBlend mode="normal" in="SourceGraphic" in2="effect1_dropShadow_32_3589" result="shape"/>
</filter>
<radialGradient id="paint0_radial_32_3589" cx="0" cy="0" r="1" gradientUnits="userSpaceOnUse" gradientTransform="translate(53.1683 35) rotate(-90) scale(39.0088 116.148)">
<stop offset="0.0813115" stop-color="white"/>
<stop offset="0.895247" stop-color="#E6E6F1"/>
</radialGradient>
<clipPath id="clip0_32_3589">
<rect width="102" height="35" fill="white"/>
</clipPath>
</defs>
</svg>
