<svg width="102" height="35" viewBox="0 0 102 35" fill="none" xmlns="http://www.w3.org/2000/svg">
<g clip-path="url(#clip0_32_3554)" filter="url(#filter0_d_32_3554)">
<rect width="102" height="35" fill="url(#paint0_radial_32_3554)"/>
<path d="M44.5859 -22.5388C46.0219 -22.5388 47.1875 -21.3731 47.1875 -19.9372V-15.2057C50.417 -14.4492 53.1333 -13.1046 55.2578 -10.9802C57.3823 -8.85563 58.7269 -6.13946 59.4834 -2.90985H64.2148C65.6508 -2.90985 66.8164 -1.74423 66.8164 -0.308289C66.8162 1.12748 65.6507 2.29327 64.2148 2.29327H60.1992C60.2488 3.14617 60.2734 4.0243 60.2734 4.92609V10.1761H64.2148C65.6508 10.1761 66.8164 11.3417 66.8164 12.7776C66.8162 14.2134 65.6507 15.3792 64.2148 15.3792H60.2734V20.6292C60.2734 21.5311 60.2488 22.409 60.1992 23.262H64.2148C65.6508 23.262 66.8164 24.4276 66.8164 25.8636C66.8162 27.2994 65.6507 28.4651 64.2148 28.4651H59.4824C58.7259 31.6944 57.3822 34.4111 55.2578 36.5355C53.1334 38.6598 50.4168 40.0026 47.1875 40.7591V45.4935C47.1873 46.9292 46.0218 48.095 44.5859 48.095C43.1501 48.095 41.9846 46.9292 41.9844 45.4935V41.4759C41.1314 41.5255 40.2535 41.5511 39.3516 41.5511H34.1328V45.4935C34.1326 46.9292 32.9671 48.095 31.5312 48.095C30.0954 48.095 28.9299 46.9292 28.9297 45.4935V41.5511H23.6484C22.7575 41.5511 21.8901 41.5262 21.0469 41.4778V45.4935C21.0467 46.9292 19.8811 48.095 18.4453 48.095C17.0095 48.095 15.8439 46.9292 15.8438 45.4935V40.7669C12.6007 40.0118 9.87344 38.6666 7.74219 36.5355C5.61789 34.4111 4.27414 31.6944 3.51758 28.4651H-1.21875C-2.65457 28.4651 -3.82011 27.2994 -3.82031 25.8636C-3.82031 24.4276 -2.65469 23.262 -1.21875 23.262H2.80078C2.75115 22.409 2.72657 21.5311 2.72656 20.6292V15.3792H-1.21875C-2.65457 15.3792 -3.82011 14.2134 -3.82031 12.7776C-3.82031 11.3417 -2.65469 10.1761 -1.21875 10.1761H2.72656V4.92609C2.72656 4.0243 2.75117 3.14617 2.80078 2.29327H-1.21875C-2.65457 2.29327 -3.82011 1.12748 -3.82031 -0.308289C-3.82031 -1.74423 -2.65469 -2.90985 -1.21875 -2.90985H3.5166C4.27308 -6.13946 5.61773 -8.85563 7.74219 -10.9802C9.87353 -13.1115 12.6005 -14.4584 15.8438 -15.2136V-19.9372C15.8438 -21.3731 17.0094 -22.5388 18.4453 -22.5388C19.8813 -22.5388 21.0469 -21.3731 21.0469 -19.9372V-15.9245C21.8901 -15.9729 22.7575 -15.9958 23.6484 -15.9958H28.8984V-19.9372C28.8984 -21.3731 30.0641 -22.5388 31.5 -22.5388C32.9359 -22.5388 34.1016 -21.3731 34.1016 -19.9372V-15.9958H39.3516C40.2535 -15.9958 41.1314 -15.9722 41.9844 -15.9225V-19.9372C41.9844 -21.3731 43.15 -22.5388 44.5859 -22.5388ZM23.6484 -10.7927C17.3619 -10.7926 13.6362 -9.52257 11.418 -7.30438C9.1999 -5.08618 7.9297 -1.36024 7.92969 4.92609V20.6292C7.92974 26.9154 9.19992 30.6415 11.418 32.8597C13.6362 35.0777 17.3621 36.3479 23.6484 36.348H39.3516C45.638 36.348 49.3638 35.0778 51.582 32.8597C53.8002 30.6415 55.0703 26.9156 55.0703 20.6292V4.92609C55.0703 -1.36024 53.8001 -5.08618 51.582 -7.30438C49.3638 -9.52247 45.638 -10.7927 39.3516 -10.7927H23.6484ZM36.4062 -6.18134C40.7516 -6.18123 44.4689 -5.32559 47.0352 -2.75946C49.6012 -0.193293 50.4569 3.52418 50.457 7.86945V17.6859C50.4569 22.0312 49.6013 25.7486 47.0352 28.3148C44.4689 30.8808 40.7516 31.7365 36.4062 31.7366H26.5898C22.2446 31.7365 18.5271 30.8808 15.9609 28.3148C13.3949 25.7486 12.5392 22.0311 12.5391 17.6859V7.86945C12.5392 3.52418 13.3949 -0.193293 15.9609 -2.75946C18.5271 -5.32563 22.2445 -6.1812 26.5898 -6.18134H36.4062ZM26.5898 -0.97821C22.7576 -0.978068 20.7507 -0.197641 19.6367 0.916321C18.5229 2.03032 17.7423 4.03739 17.7422 7.86945V17.6859C17.7424 21.5179 18.5228 23.525 19.6367 24.639C20.7507 25.7528 22.7578 26.5334 26.5898 26.5335H36.4062C40.2384 26.5334 42.2454 25.7529 43.3594 24.639C44.4733 23.525 45.2537 21.518 45.2539 17.6859V7.86945C45.2538 4.03739 44.4732 2.03032 43.3594 0.916321C42.2454 -0.197606 40.2385 -0.978096 36.4062 -0.97821H26.5898Z" fill="url(#paint1_linear_32_3554)" fill-opacity="0.25"/>
</g>
<defs>
<filter id="filter0_d_32_3554" x="-2" y="-1" width="106" height="39" filterUnits="userSpaceOnUse" color-interpolation-filters="sRGB">
<feFlood flood-opacity="0" result="BackgroundImageFix"/>
<feColorMatrix in="SourceAlpha" type="matrix" values="0 0 0 0 0 0 0 0 0 0 0 0 0 0 0 0 0 0 127 0" result="hardAlpha"/>
<feOffset dy="1"/>
<feGaussianBlur stdDeviation="1"/>
<feComposite in2="hardAlpha" operator="out"/>
<feColorMatrix type="matrix" values="0 0 0 0 0 0 0 0 0 0 0 0 0 0 0 0 0 0 0.2 0"/>
<feBlend mode="normal" in2="BackgroundImageFix" result="effect1_dropShadow_32_3554"/>
<feBlend mode="normal" in="SourceGraphic" in2="effect1_dropShadow_32_3554" result="shape"/>
</filter>
<radialGradient id="paint0_radial_32_3554" cx="0" cy="0" r="1" gradientUnits="userSpaceOnUse" gradientTransform="translate(53.1683 49.0272) rotate(-90) scale(45.1526 94.8442)">
<stop stop-color="#EAECFF"/>
<stop offset="1" stop-color="#9749E6"/>
</radialGradient>
<linearGradient id="paint1_linear_32_3554" x1="31.498" y1="-22.5388" x2="31.498" y2="31.116" gradientUnits="userSpaceOnUse">
<stop stop-color="white"/>
<stop offset="1" stop-color="white" stop-opacity="0"/>
</linearGradient>
<clipPath id="clip0_32_3554">
<rect width="102" height="35" fill="white"/>
</clipPath>
</defs>
</svg>
